<mxfile host="65bd71144e" modified="2020-12-09T09:57:17.348Z" agent="5.0 (X11; Linux x86_64) AppleWebKit/537.36 (KHTML, like Gecko) Code/1.51.1 Chrome/83.0.4103.122 Electron/9.3.3 Safari/537.36" version="13.10.0" etag="aX4XPdZ1e7I2QijmAqTI" type="embed">
    <diagram id="IvZkrwooD_3fyendLKKy" name="Page-1">
        <mxGraphModel dx="1059" dy="659" grid="0" gridSize="10" guides="1" tooltips="1" connect="1" arrows="1" fold="1" page="0" pageScale="1" pageWidth="1100" pageHeight="1700" math="0" shadow="0">
            <root>
                <mxCell id="0"/>
                <mxCell id="1" parent="0"/>
                <mxCell id="2" value="" style="whiteSpace=wrap;html=1;aspect=fixed;" vertex="1" parent="1">
                    <mxGeometry x="120" y="80" width="270" height="270" as="geometry"/>
                </mxCell>
                <mxCell id="3" value="" style="rounded=0;whiteSpace=wrap;html=1;" vertex="1" parent="1">
                    <mxGeometry x="135" y="140" width="115" height="150" as="geometry"/>
                </mxCell>
                <mxCell id="5" value="GroupId管理器" style="text;html=1;strokeColor=none;fillColor=none;align=center;verticalAlign=middle;whiteSpace=wrap;rounded=0;" vertex="1" parent="1">
                    <mxGeometry x="215" y="310" width="100" height="20" as="geometry"/>
                </mxCell>
                <mxCell id="6" value="groupIDRegister" style="text;html=1;strokeColor=none;fillColor=none;align=center;verticalAlign=middle;whiteSpace=wrap;rounded=0;" vertex="1" parent="1">
                    <mxGeometry x="150" y="110" width="90" height="20" as="geometry"/>
                </mxCell>
                <mxCell id="7" value="reverseRegister" style="text;html=1;strokeColor=none;fillColor=none;align=center;verticalAlign=middle;whiteSpace=wrap;rounded=0;" vertex="1" parent="1">
                    <mxGeometry x="272.5" y="110" width="90" height="20" as="geometry"/>
                </mxCell>
                <mxCell id="9" value="" style="rounded=0;whiteSpace=wrap;html=1;" vertex="1" parent="1">
                    <mxGeometry x="260" y="140" width="115" height="150" as="geometry"/>
                </mxCell>
                <mxCell id="11" value="" style="shape=image;verticalLabelPosition=bottom;labelBackgroundColor=#ffffff;verticalAlign=top;aspect=fixed;imageAspect=0;image=data:image/png,iVBORw0KGgoAAAANSUhEUgAAAKYAAABNCAIAAACjaYhhAAAT1UlEQVR4Ae1d+VsTV9t+/5VzBnAmk50QIAQCYREIsgmyL8omsgaD1H2hLS0KgiDUVlspblXsa8W95VVEUVzKIsUgyuLGC7hUaSv9vvbrd81MyDoDCUZEyHXND8PkzJnnPPdzP+fM3PMM/0IxxLYtKA/8a0GN1jZYFENskC+4JGeD3ABypwDw6nOwlG1wcJ7lhnkJOZQtBb8XQz9cDzkOPFYG/q7RbTdCIGa8joFLksHrj6Cz8XG9fj78n+Yn5Al54FkuFBjAAzlsKJTCvt1gryfksiHb4FcKVJj9EbifCDk0P80f1Gkg54rhbhV4Vg3+rgKPNoBVIkhmNugfAlpLwF814E0p2BsAcQxBcVj9KXi0FjyqAgNKcHwL+N8q8I030Z7nCYarwJk8cH0j+O9O0BQDhRo/0vWDIVx38GgXqE8D17eCV7vA1QRde58gcOlTgp1/lIBKH8gi+2FoD1NzwUgZYeTfFWB0BxgtAdlCyn4CM3Eg+KMSpPH08YNhy0B3Gfh7N+jOBidLwVk/XXvzUroDL7th2ZfbZUullG3mnMXzzz/S+fjNxMuR9kNf/Tg4eip20j+igraxvn1rdp691f9wcHSs+3AcG8UQ3D2p+mLPy4nXE+ODt4+qgoTkENgexXfG2jdKyOtiwTXqV1dSnTAE5XjvUL8YaDza0vlzT//93qbSeFd7rVXGkONO8Kcy0JUKA7gQZcFQBQzlQhSDbkFgtALs8oUcFgxLABNlIJ6LoAJ4bRc47g/lkeDvSrBaBHPXgt54yMagLIIAab8fZGFQvBg8rwKFjsz9YFAaRuBU50+c6xYMfisHCVwExaBHMBjZCWoDoBCHoVHg5Q6QSB5naE86gg+bK8CX7qbIwaXp4H+2QW+WFnIoDQbPK8AOL8jGYUEBYXOx2PREbXv6HUyyVLbtYPSVkbSrF0O35IilLK1/6Xc4vju6nw8dTffiOThFfHrrt9cvDSB/NTHWUhHniGMI5uSpkCxC2ZKiKyNjPxUphPZsj/i9vc8H9oXwMQSdCvLXE+rypUIExcXZjUNPTyQSoUBuRpDDlDzw2zroqXMK2Y4N95SA9mUksylGVoF1Isj3BI+3g1gODEgAz1XQiQU3bgZXgwhoE/LAr6s1kyLuDO9WgQoJRBn6QTEYlwN+VWnaixVgvBREshGUB0+UgZZQDbNRPrxWCXa4Ev3TtyeHxPMAjyrASgMqk6NgwfWbwegqSDiL2tjwixJwN1aT5J2DiFCO4Uz+qm2m2XHgKy+mdI+l6W9dPcHh+CSuGDck03fXuYSfnyY17PGQLZo8btwhe3HxL+Odpf5UA0Fm0+hzA8h/HTsR66h/dUl26/hAfRR1ITuPta3jQzVh/Kkhf3F3u5yavIRJDaOjxxKoxGB8k8aFP5SDKwRmBlZyJPB+lS78hT7gRQVI5UGvSPDreuiKwayPQEcEZHHhye2gUgJRHH5WDNqCNf3wPcF/q8BqIWToh5ggPisG7UspaGFYKhF2rhgi9AWvasDrHWC4lNy2E+wvEmn6N21Pmg3dw8HvHxuu3ajhcOGpneDapFUohrBd4b1qUC6h7IS+MWB8A5Qajt3AFQInrlTCM9ic2fohIvJ2za8IPz2Qdv1H38WYwbl63fIivnw0fjnPlXIyHn2o3yix91b46i812H5bu8c7Pl+siSHHlMaXz44nOk4N+djNImdqfcqL2PNw/FK2swZTQ5bz4NUq8D05GeubK5CDZ1VglYY3MCELvCqCEgwmKcH9ZGJZVFcC6mQEor07QBKXYGdTJTjtq3FleCp4s4VIpwz9kO0rwH6Zpn3RRtCfBDkYdAkGbz4Doaa3TDzYRNOeGhKRYJ7laZcCutjlSOCDarDLTROIKEbaUw3yBGQbFly3ETxKhVw9bPSdgGIO/ILmVPXLDP3tF3XIUhzlOjulbl1y6OeUX4bi6qrksd64/s2CSYcky7UQClYas3yst9xHH3LULfuaMctrwwmWSzd3jnUVuxPrKgyPrB8Y183lL+9X+1PrUKe0xhdjxxPpWY7Dio/BSC70ZkOcCyOCYBIxASO4M+yuBicUxESuCCPSZpmUoNrOj8E5P8hygh3lIIsPnYPAi01QxkI4UjBYA55kQjccSv1AdyU4Qq6J6PshZ4qhCpAtIMHgwONl4AzZnusOhqpBXQABA4sDwwNhOjnREsfp2pMIwTWbwHCG4XKdRSzRPULAmwqQLoBcXIM62xX2VoN9nsRM4REERmtAc6AuIAzxJsNC6Mzz9ODrbzI3NteBX3hl+YWTClWSUORAc5YJ5Cg1lx9K8eDYCcO2tY2/fmGQ2E0gZ7utvTo6+uMahdCO7R6/t/fF0P4wcnriJJ54NHY+Q8JCMOfY+oevJ3SQv554+l2uN8YSKUquj4w2JmvvPA1ZjhG3Mf/eAv6sIZbr9wphmCZrwdBo8KCSWN2MbQWl3mQG5sOWnWCrGAr9wEgx9Mdh5EowmA55GHQNBq8/AV+uBr+Ty/v6EMjTDJuuHwxKQ8Fvn8BAkhlsZ6jeBTY5Ua6HEdGgp5y47p+V4G4hSCWW31O0J1Z8PuGgvxK8qQTPNkEF0SeMzCB60G2bibik4iM+GQxXgAdbweV8MFwNyjRJXpcbzIOQcdpmOp3nr/yu88mbiWdPbx/Yc2FwpNFgxW7McgxheyTXXFITK/bfhzoaPgpx1FjI8Vt9ovfJaP/tm5cOfHWqX2/F/lx9cO/lobGJieeDF3ckSphX7EwmWnKcwH6MLrVa0omFTjdl0gdzhJN86tFQXcgkK6wxcOImbeyGysnkWRPRuRHLrXE9FtywGXRPLu9tMNN5wE4Usjw5kIdjCG9xwYWRgYZkHl2zmcIx25BziTsr0zWgNYf0wTCYCTM715X13SPPxl+PvRrtOFO6VGx0V/yWA5xtyN/SXNvp79gD7yCxv2OLbdniLT1gg5wp987b4zbI5y20TMnABrkNcttMPN89YGO5jeXzPcaZZriFc9zGchvLbSyf7x6wsdzG8vke4wtnzmYaqY3lNpbbWD7fPWBjuY3l8z3GmWa4hXPcxnIby98ty+0VJZlDjTIXhqtwg0I7uxOTJ9/lWzjMm82RmrCc51h1NfvbCFRWmNb/g4eYAZuZmjgN5CxncV6+m0y/GMAiA4Sux7pVw33Ultd2OCjJzW4aU9/teJlSiJ3Qc3dxzsMDW/5p2NQSQpRczd42tyB/25ETkK8+n4qxcDu+VLztpHKwwVMyZRUB+p4gF0iLkgJSg5Zc/27OQs5ylZQdzezvVT1VK3vOL8v20LLH3js9tLE570mf6nHHyh+2OhkUUxkHrx7LhY5bj+d0fuPlTcY4J0Dx0/UcdcfqYbUusWMi59qW3HOFPKLqgoUl1Wb1NfjIOQhHEdLelZStKfBBuEtCOzoTM10RlIT83AqUDB07z8K0J23hYWSRDaP9VoB8JpWnVHDzvJoOv3/IcSwsTRYlseP7SfMSOZOV1g5hlVmDjb6LeQiKL5KFugSLNYnIMSqi+27GFyk8PgvBxcL0TJHjVC9raiCXiMWlp3Jv1bq7GxYfmc7lvMDAS+2pJYpF7itj1W1RqRTMHEFpc/75LJwssnUIr8zqOyQl5iB9yHm8wob8gaMyCWEPo/0o/XgtS7MWV55OMmFuQD5pjWGOtQ8pz3rcHJ6pwHkGiKLLD+f37Xedktn67iMgf3x5WX1TQV+9h5tJyjWFHMXsPHMT1DfT2zszKpdqi0LsfDel9zfK3XEEFYj33sg9Ek8ym5rLe5WD3confarhK1HZ7lQ2YrJf37Zp961Wear17VyGHMFEosLK+MvXlMP3cq/VB0Q6kQ7C2UXnCm4V8yeTgZ7XcFx1VrOSUu92mqzvJSAf7lO2HEl90JFQINPODpoT6SBHUJFr3W3V8Dk/uV5KwOWLW+6krPGwE0Yt67kVFUvV2JEsb8rlSyS4zE9cULuyv2lJCJ/onN5++vjWG4VRAytVnn4YkGut5HpK97SubtvEI0sjZ8Lyh6flbmxWyt6cwdP+/oZV4DSQ49iKPVnq78MPtuQ1rePrykJxzkdn8i+vESZ/nfNLjVgTUvqJHUNw+eLW3lWVQbpyLBRDDO1nRtcIbOJPq1Weap05l1luL0+WxflgHAxhubhUXVE2F3Koj2SIYiJ/uZtRu4LLZyEskSAlw9GcudyFoJ3zF1cL2j530v+iiwnkdl55CfeuL1vugnADAi91ZuzS5XZEmru8vzWptTOrNnSy3pOEnFqxc0Sc2G0rHqqXq4jczmi/1vtm7Vir8pQIoEU4jjl6Xzyy6Wo4H2Pji2jrx8yyiiY6pwplk5s0+vPtFZvi224XDPepnvZkX6r1DiCzJWmQg+/KsFMteU/7VI87M09uM3vFjiH84CXXe7L2xWHa0RpBzlcoLnetrIqgpnA7r/zEvhvR6RLNeDCJ5xm1arg1JFibKqi5XHNfXqBuii9fQa1Ap7B/Ku+Y63GOdpFhbm9cz/OHtvzToN3Wnw6c8dMIesgYLTETcsbzzXWKeWZxQ8LvdMUnTRa/W7dzW2+UB+YU5A6KLekPm4P8ZyveF2YQzA3IOfziC8SsMXx7eXkMZv6ntBYmZm856rkBuXlp/y2Hajud8oAN8llapsydgJufkBut/OeOu+eCJSaQW0FmmB3eOPhmhJ5qziNWAHdWXSh3c9V7fGuBCPtexovLImP+U130B3GTtu7BJ8tSrfwViSknyg8Vcre0mF51xleZQhe+g4uPs1IlkepBbgGZ3gvk7JD0uOpYzyBXvrNUXrtr01+VwfJZW7SaCzmj+IhZJJ4iKG17nLP+R+XNqpCDJ1Jv3shXnw1L1gqjPl5fn8992re699yyykM59+pciKd1HH5Js+pOhfbRvS6v0IqwKIf38cWCjv3RZy+kX7+SdfOIImpSCbSGXj5z8ZQMTVFk1v8dTltuzS9CWcZyejGRUXy0UDxF6NsTkKuGm4JCBAjK4a49o7xdIiCkGg7/458KumrdZVw7x+DAi2pVPwk5JvFquqdsiGN85mU8lxOQq4Yvkv3jrPT9OXf3SUSUX+jHq4shcxLGjMVTonNOTFHRnxXBnu+P5fQBwiQ+WiqrMLQnIC+4voH4KBaK2S8pXTVwzM0RQ3Bv/2t3M7b5UIIbmnJE+YCEnNBL+nL2hU8+WjexmQ7ygraNVP+IICq6rz06hvqOp8m5zBhbXzxFWeLQxCcHcrZ76omEzAZYFohM/ZgkdgYX0IuPloqnTO3JxN6sZJORTr5G8W+pI4Zwg8O67y7P1CRhh4jd2X16LD9mGcuV/8lmUQ/zuUvC7vQkp1P6L8N46f1lXfGUJVLE9NbnfxXIMxaR6a9ukanMjc2FXGuEofjIwFrG6zG0Z4CcZHn6Vm9jlqMcQWmLqqtcxDT/0bF89e1PyMkCQxwT4vo7YmJnwHIrfbaXcCbLKShGXZ+/T8Ez0Ha1fn53O2ZCzig+WiieIvTtGSDXzOW7pVIOIlD4/9SjmctRzE6aGdenzvgiQyDm2Yvl4twCgxU7HeSq4VtRmZ72LKFw88n8e/vdZvLyrrXEU5Y4OO7egYK6YCGbjWPkNntENxdyK4mnxIsGNGIrE+QYwvXx+uZC7tM+5d0zkRUHc3r3kyt2Ios4+GeFnWnJJ+7Lu7OM7svpIC9oqwo/fU053FfQeTQodvLj5NYhk6XiKT+/TCubUjs5azTLScYEaZ2J/N18w/VdGb0ori63q0KkezGG+ULGIiyxYlc2ZWrmcuvAzHz1Od6/mSy3WohZ6g7HALc4X5SFIVy5/Pufs+uiGW/M9Ho2EWFtkOsF6FyH3CUpsvVn5cMe5VB7+rENYieD92tNApFJhLVB/gFBrsddE4D1hmFrZr4H5jrLzR+JraWZHviwIXeKXHLuBvE6Tf8P3h4zk1UWXqowgfy9KEs8Ue0NbcUotZP/Xcx0KzWcveassm2zUeEEk6jKcPy9jJflEZ3U/tW6vwjxdP3AZ9Gr9JVfM8k642ZzA3LiHyTZc7jkxsOiyjIft4ZHi6abvLmOu1rzvjd87MokqjIdt4aSNp2dpomEJZDJ4uRiqSPP0VlSuKHoz6rQ+SuecmnFUD2nCMNDb/esrAglKM5UeYri7PzDq3puE+Wuw105PTdz2g96Eno5k6jKdBxDrAH5W4mnLF5MnuqfA8vjzHneMGNm659ownJ6MdFK4imDGKozSORcc1XZWizUPjynrzylQoTnWGXIciZRlek4cV368VpG3BmJp5hHeFf9RjK3b7yTLbXqv9PRo5DOt5MHTSCf/MGwqXXEUyYxVHMtFhpbtWrgjL+/wVcVaCtPSUhMIGcSVZmOG45xWpitLJ6yOE4iodzHr3xN3FYf7px7xs5QuckkhhLsoak8ZRJDKdeL4yLvdCavlZsMnq7ylDjFBHKKzaaiKtNxCyFHUOuKpxp2YZ5Rg3Upafq1eRYbRk9U+iA2k+W6k99GPGUUQzEEc3b79kZuYy6HfEtCdzmUqfKUDnJGUXU6sdU8F1u/8pS8LiZbNnRMVS2brZtMMyG3knhKzeWmYijOSvs6p++IXC6YXLdz7dmEC6aqPDVlObOoOo3Yah7kCGol8ZQlSEkPK/B3lgq4Tm5eOz5f/8+3yYna5Yu5xljCbP0+zYXcWuIpvRjq5H5eUy6quztvKeQIp6w8pYN8ClF1KrFV3yMz2bdQPMX4KfmZ9/dvICtPNzwpS9won4Nz+UwcMU0YWiCGvoOr680d09g531qayXKrDXtGYqjVrm4LnffwioRlYugC49/sRORss3x2RmW7yhQe+H+yw6Y3sWYWaQAAAABJRU5ErkJggg==;" vertex="1" parent="1">
                    <mxGeometry x="138.59999999999997" y="190" width="107.8" height="50" as="geometry"/>
                </mxCell>
                <mxCell id="12" value="" style="shape=image;verticalLabelPosition=bottom;labelBackgroundColor=#ffffff;verticalAlign=top;aspect=fixed;imageAspect=0;image=data:image/png,iVBORw0KGgoAAAANSUhEUgAAAKQAAABMCAIAAABswIv5AAATGUlEQVR4Ae1d+VsT5xa+/8o3A5jJZE9IIAQCYTfslV1AZBNZA1GuVVzrY12gLBZqq62Uaq3SXisuqKWKCwU3VjEYi4BACohUsJU+t729z8wkYUJm2EQEOs8zP+Dky5nvO+95z/lm3pzxXywEZo5/iAf+9Q9ZJ7NMFgIzYK/gxIaGVj4ZOh8lMiVvBuxlALYw9sxg3/FwIWmqbFnevbGJicmj94sAvglUUxpjwJ7qEZIHl+pHFGAjMMJFeELXHc2/DpwMk/IRLsd6IdOAzYaiokHnR+CvUlC3HtwrAkecITxGIEd/8Go/2LsOtO8HI8XAkAWJMb9APoGgfh/4swy8PgCO+kIoftIxAIzvA/4odm1UCrWXgD1SzA7fFRhKwcUs0JAPfvkI1EZC5vRiikTr6U45Y8dPrwr79KDyPQV7DsCwvbLLrj0e+H1i7NXww9qiEAn+XdQ57vC1jtGJsYnx7vuntX4i7FqSpJrRwdsN+sFXfZc/O/5j/28v+y/nqrgwi+t+SPfiafXpmy0POrqedNYeWOtoS0yb0g6L47Kn7XnnicNn6+929v/yy4MjSQrjeEQauOvbhv7xsYkJQ+elvZEONpgdmvFc9e7bPd2GEYzBzw3dAwNP7pb48sxrRx23PhjtrwwSmM8gsECtPdPS93pidKjlmy9+7KFM45B3BBg7CLYqIA4POrgdg3yDgPA1FJYK/ioDFyMgGRtmsSF3B4iNQE5+YKgIlHhCXDYUHAMmCsBaHhYB4angVy1EOFTsBUYPgkgudl65BjNy3Av7rtQbjJSCTWIimKYgOt0/Efl7yt0nIm4NJt2+FrQzQ6pgzxgo9nEVz8bbvsxwE7JhjqM6PTfAng2zOPK8W4PDP+SpRbYcl7VHO0eeHgsU4GD/OvBVrKPLzuax0ZpEuUta3dCdne52ONhjE7rC90QwC5WmV/cMnI21x0CitoODNzbx8BA2nuu6897QkzJfLj5+8zXDi/p90c4sttAj72L34KUkR2w+LnvaqMbjKFIyG1u4Ndg87+JHL3pOJSh5drLIQy2vx0YpajYfOl8AalYbqayOBX98AHnj7GSxoe07wfMMCFub+eBAR/aBpjCCzTDPGTwrBe9LIBYb2rULdEQYWa6OA6+2QU7Yt6CYLPBrLiTDLaAy6FEpKJLTgW0n0FxLaB9OIh+tHQEhqGkCCC8w1bOkJubBQFzVERflKtN50gyNUxUkXx0cro6xmDwCs+Tp9eNPK8MJgzYuW+rHe8qCBRizh1vz3TncuPM9nSVeXEFgRVfHZyEIwexHB1Uc3Kwormpo6EyMiNYODt5Ix343fDwSdEQ3ej1egsCoR37rK11ZIEJMmB9S9vT5hSR7AmyK8cSw2YPN8dn76FXLQV/CIaK0689HrMEWuoPnJWCjicpR6WAk25RmedCFQvCtuwUwXDn0pNSYn1kILPIAL4pAIh9m8aCaj8AZlTFoMreAnvUQFtEo9OEe0BhgNCJwBb+UglyRhU0LwIT2PIWcb3HIOFiGMB0Sd8fsopALT5Marnp6G303+al5GKrY3jyiL/HC5kA6OF672seb93sbo0ScUD36/NtYMQb2UPMWNw4n5mzXw0IPjsD/2M+6L9awcbCH7+bJENwIf82R3vHr6TKYzg4O9nBTvhwvN0hAme7lrUR7BOav+bR3YuxF/5PeXvzo7/t18EqOwoZuPDHn2YPNX/Pps/EbWY7EYtGIk10UaVzqByYKQRThTS5UeQC0hkJEXcRwLQZay5QrVIHnpWAjnzAKxaSBl3mQHIGxwSUgjxjMg/5TAGp9cUT5UG0xuOBpDIKQRPB6J+TOtgCABIadIKcuUTeaQj4e6gLfQ1k8mX3iLv+TDxIe9kRXlKqi3FEi/ZCAJNmBWYiR2URZmfzIKf2nqcwuD8GZTQ/26JPDPkTQ2CdVvxj+NlYEs2js0IGHeuS3vbyT72as35PzwdI4RXAQA4Sxp3/pq4gg78aJ9VqlcY73no7xe7vd7fAv8hMvD1IwW+AGBsvA5x4QikKJSVhxPelqBEbmB8Y+BEGWmz1UBrUfBmfVWMFWB4NnRaBAgY3nOYPeUrBDiuXz6Hjw3zLwoQN2nqsA3WWgPxVyQiGFF2gvBqe8CPs0eItkfFcXAflQOnF4doJNt+KvnFNr40QSYj00Xydhbx9f2TfeVpGO1WxU6pOqIWq205bbQ0NXN6tFNhzntUc7X/QcDyZqNj3YYxMD32S6I2yJel/D4FD1Oqwkcajt0IHN4ii23OjvO58XIl/FQlbZe4Zm5QTJUCKN04LNCyrtGqvf6WlRrah34zzPwoeDzQe9+QjMcc28OkpZs9lQeioYKwOvD4HzG8BQCdAYcyy0JhmMbbYs2JgroaAI8HMxFhbDu8ABd2MaYKHQDi34vRjo8kFlMhgrANH47swxAIztBZ/mgt/wrXtlIGR1UzgzbFi0ci0WPMkMErpWJ1GfnE/qnhheT4y9et7xo2k3znFZV3Zdh+3Gf+tprvp3oBibwLRpfER34uiNnuGJiZHua4di5UZ2UtqhBRuBEVnw7qr6Zy/HJiZejj67e7EoDNv2TstsFleRe/re0Pjw6Miz5jI15jr6+2yBb843Tfruzqb2e+fPNg5QpHGSgyDPCPD7bshrhvQ4O2yMGEChG8BwlmkTMB0wczK7iIOxW6/hO1p7omaT3LWIc3hjvxFP0CCZElrviN0UCRyhmgJwPdDE1De+AOYXNrRtB2g3bd2XpadWEtjqaGx7/Ndh8PIAOBdlvEFaMFR40NkC8J3lfn7BjC9IOM5oZAWBvZxy0TKLkhnDaBEHMELIPyjQGbAZsBcxtzBpedE8wDCbYTbD7JXoAYbZDLNXYlwvWmlcshdimM0wm2H2SvQAw2yG2SsxrpdsKV20iTHMZpjNMHsleoBhNsPslRjXi1Yal+yFGGYzzGaYPVsP2Kr3pfZUKx1oxvP8glraY9fhv2Z854w3M9tG5Prxnozer3b+XbX9ZiDWyLNSDr649Hb6l2tYyk1JXd+7SBd4XTOAzZZJs7KdlOT2hjlNQOR4pl1r0BNHVuPXfnFOeG/YNEbo1zsJtlCRF+eb6Off8A0D9jSunPrRDGC/KWcwsHMvJyJs1EagkO4+p+mucpVP/8PfWYBt5DHfrfbrpQv2vLo4aRbPdpQXnE7t6tQO6DQdl8PSXcyMsXVPDqquy+rXa/uaN3y/yx5vWaXLcySwReJd32a0fOHmjudFrq/6h4YMXXOuQTeZxhGJrPxmZs0mPtZZwkbiytP0VR4qLsxVBza1xqUb23Zgnn9Qc0tsqiPMwsGuWc/Cg8bGdVNSf2NIMN6IQzt/mvVSvHlhaYMNz6OLk4UiwUnKcLmNwEuRFcs1NX3ZBRendVd7evNhFrpKGeQQIDXCKQ5f0/4o5ZMEvgDrIBElp0rEtG1KMAsxgi2XSg+cz7xX7uxs2TpjXbP5q1dfb0rcp17lvCFK1xieSADMFR6oy76chuItV3YhxWn6kwqs4pDB5vM3VWU/Pa2UY/OhnT/NerHVmdP4kmL2AnZx0jIysDCtry4kVY3yLbBkxX+drT/uOC2byTYxsPtuhFXW5ugrXZysEqw12CzExjUzRnc3uaklpfg9c4OLjef25K5qlTMKs4TSo3cyT63F2UzU7E5Nd7umX6813ApPdyYykC3N/Mlzm/r30gQbZi1UF+fUEju5fkQi2VS89sZPGsPjzJ8qfUPt8Y9QTl5Nzr09AlMCmBzPQlHtJeNeSfexvcBoGQPboNfcPJX4c3NMjtJcC4xfpAIbZkkcK+5rDTVeKlIaQFXeN9sSNrvYiMLDOu6FR+EvByCYXZspkMtRpZc0p3xDV61/IN5sSz1/+vUuYWYvWBcnCS0aR/BcFUfqcxu38/Fe6vkwu/eCyonDTjia0X3Bx8fY2UoPNoqsP5Km+y7kxM2s2vcFpNcocP99MfvGZtG6zzMelkmNwURO4wiMqrzrOzcW+1k0gVrOf7r1kpm9CkURsfu1U9tvhwgQDrrqXfY1LVwXJ81+2Fa1ThntgXARmO3gUHpLU7eJS7QoSyJDHz5KKV/PE7BhtkSYkCKeTc12QGBEIvvkdk7jfnshKaqsmG3jlhXzuCEs3gHm+a6+3pJSMpnJYUVmfFd9XH1LWnmQqUcVB5vYjXMl3Kjd63t18Vosk9POn2a9WBBMgs1zvXxy599V5mPrhdXzvjskrXaaa8/no/l0cVIGu616+9rG+zkGvXagI/16ubuv8UUE2N7Hc0Pw+ZtZA3ptX0vqud2z3o0jsCDAv6Ej7Vg0YubJFLAFavWN1g2la4hSbeOWHau/E5EsN84Qkbte1GkN9YEB5vRA1GzjfXaOrnZt4XpijznN/CnXawn2fFz/9kBdKZZ5gSFtrWvjiAL8rhc1yWwG7LfgATv1zuTeOj+fpZEjGbBpk94bYc8V7LmC1QjD/fjCSITYDbyRwYXICgzYbwfshcBmwYODAZsBe0kG5oJH+jIyOGVXP7+Zm5iNKkMjfzyc9zt26/X+z3vDEqUWDxGXc/jTCwPzc9lb+5adZ0rQ+bosrNK3bbxS6ORIevg6B6mUfr0msDmBydGHo1z9HAUyhaq8ZPufxQGqJbKteFPn0i/+TS0vaP5zSors1KV8lipyENg5eMg0WrmCBPYcpkq/XhPYFvOWhKb97+uk+Hm+vcrC1MKmhCUocWLCF4UkinK3XtXcLQ08cTbx7p1s3aXgdWb50sPt88uZA/rczpqw4pMZjyscsCduXMG+Om1bkfmR+6TfKKVSFpf/wbWc5uMRl64kN9xKu3tKHW5S7VhzA5sbmZf3R1GA6xJk9tKTOGFqSRQDW2uo9QsUwiwub8tFzf19Qkxc4Qo++CGntdxZybMRB6y+ptN24WAjcrfax5qqaLMINgk2wempNRsDW2u4httH2cnHMx4dkxvf4kgt6WIGrZjNlgbF9n+VcdCVJMjMIYcsDK2XkcRJI5xgYOc0bOPjr+W29T+w8ekZJzECo+4+Pz1K2e1BiGOshFOan3GwMYVDn3EsxPRI3MqNVGDnNOYT9mFheIS+KSLS+n2XlnYswWZL1JGdldmfreZPleoWG+/lInHSSaJ4Gq/TcPDsiP/A4T8KMQLzAoLbH8WnGlOu3ZqP0/UkZp+ZG7M1P6aziYfwPP/gto51yYRKawkwGTgS2Gx7v0hdZfYxNd9CQSOPXqy/F/BFtVPzofUSLCVCGqbSepBmPA3YOLOTd7lPZTaLKzxwU9taKKHbJ1ExO/f+Xrw0ILA4JrqrOTJqtsxmSwOiH3+VUxEg4nBQBD/eKbmXjcQJU0uiNGAba/bHCgUXFqp9fugw1mwWYqNIjdbrUj5JEUr5tlKVNDPHYjdOBbbWcC881dWWLRLtOJf9+LjTjD+cNTFbkF1gFjeJPzI2T31tM210z8weaz7N88ySkzhpJFE6sBGY5+H2xZXMAb3m0cXQohMZncfx3TjmWzuftOCLN7Ox++z2tCn32VRg5zSWhlz4SWPQ57Sc9ouSzYyCCeylAOQ/bg6roisyW4skkz9WoffAVKkU241ralONNXuWzGHAnpkQs3TlLIeJfZ2iPVlsBOapVN89SK+IoL3dIhm0kkoZsEneWWwIZ39ph7jQ+gea3g5NT1PymW1S7H+noSc0i04qZcCezmvTOPQf8xGTxqcl1sqKAwbspQW2fah/zR3sJy5d37u7zE8IoQ9QE9hsl4i4ps/e/xOTOLc+/TBiI1lfW97pkV4YeIvr4kvK75i7L4k/sr+JnGkvhnI2X9I07pjSokAnfdKcp1+vGWyhUhmtkirEfLFMvmlb3h+lQYzE+UakZ3NtuTz84CPhBal99SERkpkM8sQl9VnfWT40pZM+6c7PTfVi8yOztH9/FR89m/u/t0gOinS0FCVOHqVkSZq8KCTofseGoiCM1nRdnCyUk/31xo77WOuooTWj425G0wlXTM+mkz7pziPwLMFGXEJaK/PxTJ7flq7gLy6QM0U97r4lJ3HSSJaTrpPIym5r6veIzA+9qbs4ieDgi0stmU0nfdKdx647S4mTzbWXiFQeXoWbo3d58N7hs/FlI3HSSZZGsNmsqNKNTy/6+Fi8yYKyixOPdSuw6aRPuvOTQUZKLeaTpppt8RniGt5dkZBE7lkyf2GR/lgmEiedZEl4SRod2taybovKijZUXZzYV6zAJhhsLX3SnZ8eHWqwlWE9Z7SHlQu99Z9+KqRPl43ESStZYv8zn9OXdzKrM7n47xdIRYqui5MKbFrpcyZJlOTMyUsbwWYLE5KDc3xkCiHP3snt0P6tf3+5LtZcZii/+XZPLheJk6jZ1pIlyk76PEN/SqUSmvbkPFsORp7pujitmU0vfc4giVKiYwQbESRkpz45vg3v4tzWXxCbr3qXNXsyGKdOeulJnNSSpb3zZWPr5eTd9s1NXNG0XZxUYE8jfU4niU71G16mKdM4va8tSjszbIoH5iBZUoLxtk8yYE8BbM7/nJdkOeerLEgcMGC/qd/nJlm+09TIgP2mYC8I5xbHyP8BJ6irMOU3j0gAAAAASUVORK5CYII=;" vertex="1" parent="1">
                    <mxGeometry x="263.75" y="185" width="107.5" height="49.82" as="geometry"/>
                </mxCell>
                <mxCell id="37" style="edgeStyle=orthogonalEdgeStyle;rounded=0;orthogonalLoop=1;jettySize=auto;html=1;exitX=0.25;exitY=1;exitDx=0;exitDy=0;" edge="1" parent="1" source="13">
                    <mxGeometry relative="1" as="geometry">
                        <mxPoint x="508" y="460" as="targetPoint"/>
                    </mxGeometry>
                </mxCell>
                <mxCell id="13" value="" style="whiteSpace=wrap;html=1;aspect=fixed;" vertex="1" parent="1">
                    <mxGeometry x="440" y="80" width="270" height="270" as="geometry"/>
                </mxCell>
                <mxCell id="14" value="StyleSheet" style="text;html=1;strokeColor=none;fillColor=none;align=center;verticalAlign=middle;whiteSpace=wrap;rounded=0;" vertex="1" parent="1">
                    <mxGeometry x="525" y="310" width="100" height="20" as="geometry"/>
                </mxCell>
                <mxCell id="15" value="" style="rounded=0;whiteSpace=wrap;html=1;" vertex="1" parent="1">
                    <mxGeometry x="455" y="90" width="240" height="170" as="geometry"/>
                </mxCell>
                <mxCell id="16" value="类名维护" style="text;html=1;strokeColor=none;fillColor=none;align=center;verticalAlign=middle;whiteSpace=wrap;rounded=0;" vertex="1" parent="1">
                    <mxGeometry x="540" y="240" width="70" height="10" as="geometry"/>
                </mxCell>
                <mxCell id="18" value="" style="shape=image;verticalLabelPosition=bottom;labelBackgroundColor=#ffffff;verticalAlign=top;aspect=fixed;imageAspect=0;image=data:image/png,iVBORw0KGgoAAAANSUhEUgAAAOUAAACFCAIAAAArX6gbAAAgAElEQVR4Ae1d+1sTx7s//8X5od/ztD1ttVptPQIKGLlKkKsoKn4VbauiX7GtgtdilaJ4QQGtIAoKVbQCgoiCF1QsFkFB5BJyQUIQIYRLEkjCJQnZZM6zTByX3STlktAEd58+dvbdd96deefDZGb33ffzX4A+aA/Yjgf+y3aaSreU9gCg8UqDwJY8MD68qvuHb666eWFu2u1v72BqbOwd1Wg0oaGhq1ev7unpAQC0t7dv2LChtLQ0JiZm7Eaomq6urgMDAyS5SCQKCgoiCU2cpqWlzZ07l8FgeHh4PHjwwJimh4eHSqXy8fExpjAxeVlZ2dKlSxcvXrx8+fLe3l5jRoqKirq6ukhX4+Pjnz59CoXR0dHz588ndryjoyMsLIxYZdOmTQEBAVQ7RB0rL48Pry/PVZfsewIAuLftHjuLPfa+NTc3r1mzBulbFK9qtfr169foXn9bSEtLO3HiBACgtbXVwcHBmL6F8MpgMNra2gAAfD5foVAYu/u2bdvq6+uJVwcGBgICApCkqqqqvLyciFcAwPbt27lcLtIBABw+fLiwsJAosa3y+PCat/Jme3k7psaaHwgKNxfBrr58+fLs2bOmu83hcDZt2oR0Ojo6fvrpp4qKioSEBCjMysry8vJaunTpyZMnoaStrW39+vU+Pj4rVqwwNpBwfuXz+f7+/h0dHQCApKSk5cuXo2G7efPmvn37AAAsFmvFihUYhu3bt+/hw4fwFh4eHn19fQivbDbbzc0NAKDT6fbv3+/t7c1kMtGMu2rVKrVavW7dOtQL04Xe3t5169Y9evRIq9Ua01QqlXZ2dmq1mqjA4/FCQkL8/Py2b9+uVCp7enpCQkLmz5/v7+8fEhLS1NQElQsKCo4dO0asyOFwUMeh/NatW8ePHyfqxMfH5+bmEiW2VR6FV6lUmpycfG70IRQKUZeuuGYKXwjPfpwkfC7MCcyB8uzsbCaTiXQMFu7duxcREWHwEhQ6OTkNDg4CAMRiMZSsXbsWAqu7uxteolZ3dXXl8Xh+fn4tLS3oKmk9EBYWVlJSEhQUxOfzAQBPnjzZvXs3AIDH40HwpaWlzZs3z83N7csvv3z06BEAQCAQLF++HACg1WqlUimybKIgk8kYow8Mw+rq6vbu3evt7X3x4kVjf3J79+51c3M7duwYbB4AICgoCPo8KSnpypUr8KbU+fXgwYO3b98mNomKV4FAsHLlSqJOWlpaYmIiUWJb5VF4BQA8ePAgknDcunWL2J8rLpm9Tb09bHFXTVdO4A3iJRPl48ePz507t6amxoROWFjY9u3b8/Ly4LhiGGZvb29CH15ydXV1dnaOjY0lapLwKhaL7ezsLly4AHXUarWrqyuGYWfPns3MzAQAoPm1paWFwWAMDQ319/e7ubnFxMSYnh2JNzVRlsvlBw8enD17NoYZXvHX1dUlJCQ4ODiwWCyxWDxnzpyQkSMoKCg+Ph5apuJ169atZWVlxPtS8SqTyVxcXIg6YrHYwcFh8+bNRKENlcl4BQCkp6dDxCYnJ5N6AtcDAADieoCkY/A0Ly8vKirK4CUo1Gq1lZWV0dHRwcHBAAAMw+zs7Ej6lZWVriMHi8WCl1xdXSsqKjw9PXk8HlIm4bW+vp7BYOzatQsp/PTTT5WVlYGBgXDngfAK57aGhgYAwODgYHFx8fr160+dOoUqmijIZDLH0QeGYcPDw3fv3l23bt369esfP35sojoAIDU19fTp02KxeMmSJVRNKl537NhBsknFa3d3t5eXF9HatWvXjh49SpTYVtkAXoeGho4cORIVFTU0NETqDHG/xcnmwKtjWb+y2WzTf9Otra0AALlc7uzsDM2uW7fu7t27AICenh4T64GBgYFnz54tW7YMzV5EvKpUKj8/P4FAsGXLFvhbDwC4e/dueHg4/MMgzq8SicTe3l4sFsvl8r6+PgDA48ePf/zxR5ITxniqUCjc3NwOHDiAfugNViwuLtbpdFqtNiIiIisrCwDg7e1dWVkJAJBKpajunj17/vrrL6KFpKSk9PR0ooSK1xcvXmzfvp2ok5CQcOPGWH8YiRWtpGwArwAAoVCIPEVsqLp/OG8l/jyrYMP751ljWb9yudyNGzcSTZHKa9euhfubgoICeKmtrS00NNTLy2v58uVyuZykD0/R86w9e/acP38eCkUiEVx9AgBiY2OhvLu729PTEy5GBwcHv/zyy7S0NKiPnme5urr+8ccfAIA3b974+fn5+PgEBgaS9tcGm2FQODw8bKzZRP3Nmzc7Ojq6uLhERETAjRePx1u5cuWSJUuWLl36/PlzqFxZWent7b1y5Uq03+JwOFu2bEGmdu3aZW9vP2PGDEdHR1Tr9OnTpN1VfHx8Xl4eqmVzBcN4NXs3RCKRv7+/Tqczu2WqwZqaGuKzCKrCtJGsXbtWIpEY645Wq12xYgXpp2n37t0lJSXGqli/fIrwCgA4cuRISEgIfF9gIb+IxWImk+nm5oYmGAvdyErMstlstJSnNqmzs/PJE/xhOTo2bdoUHh6uVCqRxOYKU4dXm3MN3WAr9ACNVyscFLpJRj1A49Woa+gLVugBGq9WOCh0k4x6wMx4Ld5R3FwsMHq3SVzIzc09f/58XFxccXHxhM0Md4i4S/2p1aV5+e2xeMjLGA/++u/rv7ZjLWTw/JYpm/DXvAYPT09PlUrl6+tr8CotnIAHaLziTsOkUvVIuMwYPchf/73sSSke7XA9u2Wb0RcKNF7H6M+xq1kEr+r+4eyAnDd/4q+sXhe8vub1xxXXzIr4F3jU3F3+g5/0E2Tpwafs6/qgxBs3bpiOcyssLLxy5UpycnJpKQ4UoNO17t7P8WBy3Jl99/RBq4q/nnGX+nM8mG9+ijToAjS/9hYU8td9q1MP49EtYdvYLp5ofn0TsVualw8A6E5Lb/8Vj0xgu3hiI5Gp6o4Orrcf3ot3eO1OvdS6C4//wnp7X69cw2X6cr181G3t8O6rV69Wq9WhoaEGG0MLJ+AB8+O16U5TXnBeUyEe9tbf0Z/ll61RYjqtLm/lTTFHgqmxi/bpmAqXXFqQoVLoQ+l27tx56NChsXdA2SxoDMBDqIBWi42EUGGKftZChnokmkzV8sagKYhX+aOS1yvXaAlvm4nrAa1cwfXyGaiq5nr7aZUq/G3fkWOSHPydUE/676LTeOQkf/33LHvHegen+v9zUL/Fo1d7Mq8Jj8bhzRkc1I4EmhlsAC2cpAfMj9fUby5eXfIHGHmT9brgdeo3F3MCb+QE3rjimgmXto/3ljQVNrU9aysKw8MDJnZg/QMNi1zbD8bIih+CkQDT/ueVzd+/fz9p0Oxwh6huzryaz2bJivG4QXQQ8YqHMfz59NXHnw9Uv4IKA9WvmjduxX8rVq0deo3/HaL5VZpfwA/9DgAw8KqmwdlFlHBmsKYWmaULZveA+fFa+VtVUdjd+st4MHzjrcbHe8hv/0TVooINdx5GPhI8eh+0OoGOaQcHZfeLm/69XngcD/Hur3hBxWtXSlqDswvbxQPaH+4QseYv6K94wXbxNDa/4iuB1Essu4WS7HdxzTpdw2L34c4ujrs+zBfhVatU1c74Sm+8q1uSdaNhsbu8dFRgygS6Rlcx5gHz47W5WDAoHrpol64QKvo7+i/apQ9044HYEp5E2at/E5jpdjV94e9azfvA+79dv5I6oJXJsV48hEr28DHc8eDrAQdnVetbAIDp9QAAoCMuvv3QYWSTOL8qmwVcb1+NRMLxYKJNWFvUQUHYNuEx/bcPCK+KsnIIYnVHB1wNt8cc7cm8hizTBfN6wCJ4BQBwcjg3V+O7lqY7TVdcMjOcL2f5ZQ/26AMUy4+Vk+bd8a5fVS1vuN6+nCVLeT4BQ2z9J0ryv8q43r5sN6+/3W/pVGqOO3Ogqhp6U5qXD1efAMMaA1dAuexJadOaUDASo6N4VlH90SeDdfovqNDzLC7Tt7+yCgDQV3SP7ebFWbK0ae0GTNFv3kGirSEPmBmvyK7pwo2gXNFLkWmdqbzamZTSdV4fXjiV96XvNV4PTDVeB3uGLi3IeBg5arsz3kabUV/28DHHncn19tN04x+a04eVe2Cq8Wrl7qCbZ+UeoPFq5QNEN2+UB2i8jnIHfWLlHqDxauUDRDdvlAdovI5yB31i5R6YaryKOZIsv+yzHycNScgfi0/SUxiG5efn/zZyvHiBx9YYPAYGBqjfPA0NDV29ehXqi0Si1NTUmJgY4hfCRUVFxDw3Bi0DAOLi4gIDA1EONraLh1ap4nq9TxGnEYt5fsu4S/1lD/F0BDyfAJbdQpbdwtrZ3zQuC8ak0uqPPum9jSd66sm43B57giqh3lrd1g6NsOwW1nw2C77tk2TndialtMeekN3XRxdNg2RvAIw/nyafz59MBCp0d6bbVbPjtaqqqqgIH2mtVtvZ2UkdVyjp7u6GH20TFUpLSxGI5XJ5Z2fn9evXiXjt6enJzs4mVjFYdnJy0mg06BIVr70Fd4SHRyW9gsr8DRslN25iUmntjK/4G/AP3xFeSRJknFrABgZYCxkqAR7rQ8XrNEj2NkG8RkZGxsfHU+eb/o7+q576V5GcHO6fv+CBf/kh+ZluV695/cHNfZ+ChYhXlUx1maHPEnWZcUUlw0OiSFGIcGxMv7N99OhRRUUFaRQfP36cmpp6/vx5+Nl+WVlZWlpaXFzc77//jrK+wSxxKhV+X3RkZWUR8QoASE5OJukgZVRwdHREZTx8ImilTqV+vVqfIq41ci/bxYPl4NwYHALDZ6Gy/M+nvKBgoNNhUmmDs0vTmlBNjxjhlSTBo21Cv+P5B/H8llV/9Akg5DgSHo2DkysAoLegsCfjsuhMEvFGtp7sbeJ4hQmLqBPtH8zrijY8KeTtb+8In+OJ4vo78JeTGiV2aUEGptInkDKNV2oUIhxX0+9su7q6Tp06lZ2dXVtbC1MCcjice/fuAQCUSiXKrUSdXwcHB5OSkog4AwBQ8ZqXlycQmPp0QiKRMBgMkh3SqSQ7V3hiVIIjnUbD8WDCV8oQr5KcvO7US0S8EiXIYHdaetuB9xGYqjetDQw3YhAP0kQFW0/2Nlm8RkZGonST0CmVZ6pepdXg6HTI0GnxmMKqsy+zA3JyAm8kfZo80KnPLWwarwajEJHTTRRUKlV9fX1mZiZMuVNUVJSSkvL7yJGUlAQzR1Dx2tXVRUrsYxCv9+/fJ2VgJbbk7t278+bNu3TpElFILVPx2p16CcEO4hUbGOAFBRPxSpRAm0McHgrPhZLm7zb3FeF/nCYOW0/2Nim8RkVFwdRoRAf1NffdWJ7b/EDwaBf+xrWjsuPG8lyYifv3RVfgXAsAyHR/v35VKdRoPZDh9LtKpjIYhUi8i+myTqc7ceKETqcrKipis8lJlal4lUqlqampJJvU+bWwsJDD0acMIynD0/b2dk9PT4OXkJCEV41E0rDYXSvTZ1uCeMUTIv0U2brnZ7jfanDGEwwiCb5AV6q43n5DnPfrK/nTsqZ/r0d3MVaw9WRvE8dreno6NRscdFOm+9WCDbfhxzDNxYLinXhy4D5BX+J/n0Z4zV2R19Ogz/OKZ1ybd0mH6ZS9yjP/OquSqYxFIZpevwqFQpiLUywWwxSnHA7n6tWrcG3w9i0eZ4jHH8pkpFlQq9WitMlQx+D8evny5b9NTkNavyJrqEDCa+vu/e+jbEc+I4PoVJSV1345l4hXJAEAtEUd7L6YgWzqNBou01fZbGqtApVtPdnbRPAqFAqp0yryHQCg4kRF8mfntMN4bCumxm6tKyjcVPQw4uHlxZkIry0lb9Idf8c/Qxg5nidWZgfkPNn/5yWHDLjfMhiFaHr9+vr166SkpDNnzqSkpDQ3N0PLJSUlycnJZ8+evXnzJmpkbm5uWloacfGdlZWFsvp3dXUlJCTExsaePHny+vXrsNbw8PC5c+eQBWMFJycnY5egnITX6n99ypq/AD6N4vkEoPkV6HQsB2ciXpEEYFj1R5/w/JbhWy7/IIBh/S+qXn38OXqk1XYg2lgbbD3Z20TwaswXNi0XCARE+FL7UldX9+zZM6qcJHF3dx9LTkJSrSk7tfVkbzRe30PFdPpvFos1PIx/TGv6yM/PX7VqFXpfYFp5iq9Og2RvNF6nGDP07Sbrgal+HzvZ9tL1P2wP0Hj9sMff1npP49XWRuzDbu/48NpV23XV81rif59uKTGcQMWYMy3Ex2nsdqblpaWlHh4ezs7OxLTx+fn5kOUQ0mzMmjWLwWAsXrwYcmAAACzEb2gWPs7Ozs41a9YsWLDAy8sL5Ran+TjxYIDu+u5b6wrGi1cL8XGaxqXBq5CCBj6gJb5flUqlkCER4nXbtm2Qd+Sbb76BFHYWwqtZ+DhFItHLly8BAPX19QsWLEAd/9D5OKEjCtbfJuJ1LHxGFuLjJHF2yuVyV1fX6OjolStXwhAWtVodHh7u4+Pzyy+/QK7K7OzsvXv3ohGFhfDwcE9PT+L8CvEKAPD396+rqwMAWD8fJx5XpNHMnj0bxTROcz5OoVBYTDmocYMkvI6Fz8hCfJwkzk65XD5z5kyJRKLRaCCPV3Z29p49ewAAGRkZEK+nTp1CsVpE1JLWAxCvAoFg3rx5JmizkQVr4OMEABQVFRF5zqY/H2dycjKBjhOPc0VDggokvCK5sYKF+DipnJ1yudzDQ58qi8lkKhSKn3/+GYYUCgQCiNeTJ0+OBa9z5szx8PDw9fWFnHXGujYW+ZTxcQqFQiaTSYxVn/58nFKpNCoqCkGWOrkCAMaLVwCAJfg4qZydcrkcMS8zmUy5XL5//34SXg2uB/C48tH7LbQeGAsiYRjNaDpOxynm41QoFEFBQbW1o7IjfhB8nE+fPoV4NfZekYTXsaxfLcTHSeLspOIVoROtB2QymZOTE4y8JgbuTBKvVFhPJR+nRqP57rvvqD8FHwofZ3p6usEfzR62+MLctDP/Opsy8/ytdXrizLGsXy3Ex0ni7KTiVa1Wb9u2zcfHJzo6OiQkBKLqyZMn7u7uixYtIi718vPz4+LwhMPE5wPwdGL/TiUfZ3l5+eeff44meBT3+KHwcQ4NDUGq1YkNFbXWVPJxEu+u0+kgKWtJScmBAweIl0jllJQUxChLumS1pzQfpwWHZgr4OKmth/zcwcHBoaGh6PEqSe3x48dMJtPf3x9NSyQFqz2l+TitdmjohtEewD0wvvextM9oD/yzHqDx+s/6n777+DxA43V8/qK1/1kP0Hj9Z/1P3318HjAzXq2cP3Z8viFodyafx9nhHJw6f0tG4tbIvSjbT3vM0bqv5rEWLOIsWTrwUk/cRfNxIl+Zq0Dj9e89qfjrGf6x9cAA0GqHWA2ogqr1rVaOJ18CAOA0RhmX8UwLd+9zPL2hkMYr9IMZ/7UIXq2WPxYAQOKYxRnn1m5o+TGC6+Ujf1oGAFC3tfN8A3l+y1rCd0BS2ZYfdkpycW4mdAyLOhuDQ+rn2RPnV4hXrH+g5rMvoSbNH4s8Zq6C+fFqzfyxVI5Z2f1ink8A0OmGWA2QWRNH5w08uUbz91sgXhuXBSOmLqLfSesBiFdpXj5ukD4s4wHz49Wa+WOpHLOy+8Vv90ZBSnmuty8AoGGxO2Tj7sm8psfrOwY50hCQ8Fr/jT3bxeP1yjXEzFakKvTpJD1gfrxaM38slWNWdr+4LeqgHq8jibAbGG4kvLZsJ68HoNNJeIXz6yTHg65u2gPmx6s188dSOWapeEWr1eaNW+H8Kn9apt9v6XRDDe8THtJ4NY0tS1y1CF6tlj8W54ofzTFLxev7/daPER2nEqHTO8+eY9k7shycO8++z/rWGrlX/udTqICeD1hikGibyANmxiuya7pgbfyxxNbqVGp4Kjx8rLegkHiJVG7694bBehZJSJ9a1ANTjVdr44+lOnfg5Ssu05cXFNzyw04dgTyDqNlxKpHt4tm8cStk7yZeossW9cBU49WinaGNT3sP0Hid9kM8rTpI43VaDee07wyN12k/xNOqg1ONV+vn43zx4sWZM2cSExMLCgogVwfMm2IwFQMJC6b5OLlePogKBlZsDA5hzV/QV3gX2an5fDbLwZm1YFHz91sQmRaRxbN541acv3PGV7Uz57DsFrb8sBMAIM0vaFjsznbxlBXj7CbG+A3RXYwV3uzYNVD9iucfBNuJHvaR9KV5+fDJNElu7BRT9PNDv2M5LhaEbdMqlZoeMWu+PsmXTqOpnfU1psBJ2kh0kPfu3QsICCDRRowbr8ZoYYy11aCcyL9lUGECQnPxcfL5fJVKpdPpsrKyqqurYUvMwsdJxSse2HUwhoRXrRJnWmz5MaInU08WSWXxFJ441ZmUAtumkUjqv7HX9IjVQmH913bawUFL4xWTStUdHWMfo/ZDh4XHTgIA3v78iyjxN/zxvDsT8oYO1tQ2Bq6Apkh4xYOTFAoSRdS48crn88+dO2fwa+/pxMcJACgdOdCoTJ6Pk+vl83b/Aa6XT0v4Dt07NgTDeNVqmzduld68BQAwyOJJxGvf3fvN322G7WxcvkrxDCclNcjHifpirND2y68w7gdOeLL7xYLN/8F/BOwdYfAaAEAQto3t4kmcX0khbwDDWnft43gweT4BQw04YxnH0xu+F1SUlTeuWI1TMv3yq/g6zsfblZLWcTJB3/jR9KUwfR2JMnIieEVknNS5dtrwcWq12vPnz4tEIjS0k+fj5Hr5wEFqCd8hvXUbWqbitWGxe92ceTj37LunvyQWJDzRJ2F+7cm40rprH7Qm2Pwfab4+jwlq+YQLsvvFbNclWqWqv+IFDF6DpojrAWrIW++dIsGmrTgV64sqnBcXgLo5/zcswhmoh3iNDQw3PH1T8cOWHyNwLtwNG/srjJKpAwAcHBz6+/HVAjwmjtfIyMgjR44QU/oAAKYNH+fDhw9LSkreeQn//+T5OLlePnDYJDl57b/GQuNUvOLrAa327d6ornN61sW/x+vu/dCaIGxbb8EdYrMnU5bdL24dsayRSGDwGrRGxCs15E0Yexz+WUKkAp0Ox2tnF47XxtdsFzwhH6box5nxtFqW3UKd2hTxTmJior29fWkpzp09ke+5+Xw+ygaXnJxMWhhMDz7O2tranJwc6CD07+T5OHG8jgwbjteYo9By+6HDBtevsielzd9ugjqm8TqyHgiDmo3BIYry56jNpMLg4ODAgJ7Cl3TJ4Cnab2FSKXckeA2qjcJrxYvm77cQqwuPHCPgdd679QC+MFCUP28M1meF4vkHyR4UN/17A7EutcxgMIgYm+D8GhUVVVVVRbUOuWFtmo+zpaUlIyMDpfxFfZw8Hye+HvgjC99LbfsRzYKi02eJ5Jo1n8+G+62Okwkw0BFunkis3sT1gEYsxvdbEsmwqLP+G3u430LNJhYOHTq0cyf+PGGMx1jwSg15671TBBGsKH8O1wPtB2M64vDErG2//Ar3W/iS5vhJnm9gV0qaicZotdpFixYRFSaC11u3blFXrsiorfNxZmRkxMXFJYwcDx/qHw+ZhY8T32/9/AvHnYnvt96tTdVCIZfpy/XygVsT/fOshYymNaHDXd3Qq6bnV/x5Vl4+28Wj5rMvJVk30EBQCxs3bkQMo9SrVIkJvAqP6nPjUUPe4H6L7eKJkzKPhF9qZfKmtRtY9o4cDybWr5/gFWXl1R99QozPpDZAo9FMdr9FNToNJNODj7Mn8xpaQlAHRavVenl5wex31KvjknQmpXSdNzUvGrSG9cm4TN+Bav3HwwZ1SEKhUBgYGEgUjnt+JVaeTuXpwceJSaUWHRTZw8ccdybX20/T3TOBG2G9fUCLE2GP5bh3796qVasePHhAVKbxSvQGXbZ2D9B4tfYRottH9ACNV6I36LK1e4DGq7WPEN0+ogfGh9dXqTUX519K/frigx8eaIfHunCGL4JDQ0NXr14Nc1i3t7dv2LChtLQ0JiaG2JpJltvb21EO/1mzZp06dcqYwYsXLzKZTMRfQGXopEosxG9oFj5OAEB0dPT8+fMhZxPsNc3HCVoet6gUah2muxVaUH9lHJ/aTTEf58DAAIPBaGlpMYZXDw+PwZE4JvzxoVzu7OxMZOikSizHH2sWPk4AQFVVVXl5ORGvAACaj1MPgIqTzytO6d/7jYXPyEJ8nElJSZ6enjt27Fi0aJFKhYfhwSMuLg5Orjdv3ty3D48FYbFYK1aswDCsqqoqJCRk5syZISEhP/zwAwAAcR69q21AYhN8nBwOh4RXmo8TH1OtRpvpdrWrFo9ggOONWNqghPqvJfg4W1pa4ANwLpf76aefIry2tra6u7ujN3BhYWElJSVBQUF8Ph81jMFgoDeuVIZOqgRVNFawBj5OKl5pPk58vJ5G//XsaLmxkaPKLcTHefv27ejoaHg7BwcHhNfNmzdDTkN4SSwW29nZXbhwgdgwIl6pDJ1UCbHueMtTxsdJxSvNxwnYWezb390BuvGNmiX4OAsKCqh4LSsrW79+PbFx9fX1DAZj165dRCERr2NcDxCrU8symQxt9WBhivk48TAoynrgQ+fjfPvX22z/HM2QhjhgY1m/WoKPs6WlhclkqtVqtB7QaDS+vr6QaxO2EPJvCQSCLVu2PHr0CDWbiFcqQydVgiqOvTCVfJywVVS8fuh8nNkBOee+SLkwN+3C3LSnv/4F3fQP8nHC/VZkZCTEX2Vl5RdffIHmuejo6NjY2PPnzwMAuru7PT09USQlEa8AACpDJ1UydqRCzank4wQA7Nq1y97efsaMGY6Ojs+f67fCNB/neEdNr28hPk64Zu3t7fX1xVO3fmgHzcdpwRG3BB9nRETE8pGjvHwc+z8LdnJqTdN8nFPrb/putAfG6YHxvY8dp3FanfaAmT1A49XMDqXNWdQDNF4t6l7auJk9QOPVzA6lzVnUA2bGq83xcUpv3WbZLYT/Vf/P/6KsO1SnC7aEc719RQln4CUqQydVQvMbUt04ScmHjlfkvsG6egqzLyEAAAVySURBVLbrEmO5RjTdPUQWOCpDJ1UCAKDxitxrroJF8Gq1fJw6lVoQtg3mXeP5B713ok7XGLgCTq5vInZL83D2ze60dJg1qCfjMs8/qHbmnMbgEJgVEHEeIQtUCQCA5uNE/jFXwfx4tWY+TvH17DcRu3EsXswg4lWaly/Y/B/oU61cwfXyGaiq5nr7wVQrelLZkdRlUIfK0EmVmGuEaDtED5gfr9bMx9m65+e+onsAAGWzAOFVOzjYwHBTC4XIL/I/n776+HNiZgeclIuIVwpDZyNFgqzRBTN6wPx4tWY+ztbd+6l4FR4/SWSBw2ff1Essu4WS7FzkaBJeqQydVAmqSxfM6AHz49Wa+Tjx9UDkHuJ6QP22jePpTdxmKZsFXG9fjUTC8WCiLNIkvFIZOqkSMw4SbQp5wCJ4xWOHczg3V+O7lqY7TVdcMjOcL2f5ZQ/2DMEblx8rf7xnVHbVnTt3Hjp0CDXrbwuqljdcb1/OkqV4Emc2F+qTuDapRvD91ub/cL182g4cgomeRYm/1XwxGz3S6r15C/2yy56UNq0JhYxwJLwCAKgMnVQJtQG0ZJIeMDNex9iaf4yPU6eDU6n8UcnbfQfG2FpazXo8MNV4/Wf5OLVKFdfbt3FZ8OuQdei33noGg27J33pgqvH6tw2iFWgPmPAAjVcTzqEvWZ0HaLxa3ZDQDTLhARqvJpxDX7I6D0w1Xq2fj1MkEqWmpsbExBDzwRQVFU2ejxMOfoOzC3rNCwBoWOxeP88eJ/d5dwhPnKqd9TXAsHcC8v9J7JttUQdZTiPVMaxuzjzIzCHJzu1MSmmPPSG7Xwzrb9q0KSAgoKtLn5WHbNRGzqcar9At1szHKZfLOzs7r1+/TsSrWfg4Yd9xXg3dqHQjwx0iIl55voE8/6CBl4bz/FPZN9uiDrLdvIYaX/dXvOC4M43hFQBw+PDhwsJCG0Gm4WaOG698Pr+4WP8nSzI5nfg4s7KyiHgFAEyej1P+qKQxOOTV/84kzq8AACJesd4+totnT8YVFGir5PIaV6zmevsKtoRrlUoq+2Zb1EHh0bjOs+fao48Ij52EeDXIxxkfH5+b+/4lM2n4bOJ0IniNjIyMj483+Ps4bfg4qXidPB8nBARpPUDCa29B4du9UcomPmIB5vkHqdvbAQCiM0k9GZep7JttUQf77j1o3riVv+5bKvMREYVpaWmJiYlEic2VJ4hXRCFL6vC04eOk4nXyfJzQV6bx+iZid+/tIgBAvYOTVibXiMW1M75qDA5pDA7h+S0TnjiF43U0+2Zb1EFInCk8csw0XsVisYODA8rSTBo7mzidFF4jIyNJdDPTg48TAEDF6+T5OI3hVf22je3mBa/WOzg1LHJlu3jUzpzTV3RP0yNmuy4hIonKvgnxivXJMEW/abxeu3bt6FE9DyjRpg2VJ47XqKgoEtkx7Ham+1Wb5uOEvaDidfJ8nNAyml9Vb1r7q14CAPoK70Ket6HG11ymPrGS5MbN1j0/45FDHsz+55U4R7BUqmziU9k3IV6hcdN4TUhIuHHDFAEiNGLN/04Qr+np6SghMKl7ts7H2dXVlZCQEBsbe/LkScReaRY+TuioBmcXnUoNv1ngLvWvd3DiuDMHa+tg3G37ocNQTd3RwVqAU6cquTxeUDDbdQnH0xtyGZPYN8eO1/j4+Ly8PNJ42dbpuPEqFAoNTqu21W1Sa6eMj1OnUrPsHUl3n9ipafZNgzZ3795dUjIqjNOgmjULx41Xa+7MZNo2BXyc/HXfNji7dJ1LnUw7iXXHxb65adOm8PBwpVJJtGBzZRqvNjdkH3SDabx+0MNvc52n8WpzQ/ZBN5jG6wc9/DbXeRqvNjdkH3SD/x+V0wzdwV5bVgAAAABJRU5ErkJggg==;" vertex="1" parent="1">
                    <mxGeometry x="463.09" y="100" width="223.83" height="130" as="geometry"/>
                </mxCell>
                <mxCell id="19" value="样式插入入口" style="rounded=0;whiteSpace=wrap;html=1;" vertex="1" parent="1">
                    <mxGeometry x="447.5" y="270" width="255" height="40" as="geometry"/>
                </mxCell>
                <mxCell id="20" value="" style="rounded=0;whiteSpace=wrap;html=1;" vertex="1" parent="1">
                    <mxGeometry x="760" y="80" width="250" height="270" as="geometry"/>
                </mxCell>
                <mxCell id="21" value="" style="rounded=0;whiteSpace=wrap;html=1;" vertex="1" parent="1">
                    <mxGeometry x="770" y="90" width="230" height="220" as="geometry"/>
                </mxCell>
                <mxCell id="22" value="Group Tag" style="text;html=1;strokeColor=none;fillColor=none;align=center;verticalAlign=middle;whiteSpace=wrap;rounded=0;" vertex="1" parent="1">
                    <mxGeometry x="835" y="310" width="100" height="20" as="geometry"/>
                </mxCell>
                <mxCell id="23" value="&lt;ol&gt;&lt;li&gt;创建style标签并插入head&lt;/li&gt;&lt;li&gt;insertRules(index, rule)&lt;/li&gt;&lt;/ol&gt;" style="rounded=0;whiteSpace=wrap;html=1;align=left;" vertex="1" parent="1">
                    <mxGeometry x="790" y="210" width="190" height="70" as="geometry"/>
                </mxCell>
                <mxCell id="24" value="1. insertRules(group, rules)" style="text;html=1;strokeColor=none;fillColor=none;align=left;verticalAlign=middle;whiteSpace=wrap;rounded=0;" vertex="1" parent="1">
                    <mxGeometry x="775" y="115" width="220" height="10" as="geometry"/>
                </mxCell>
                <mxCell id="25" value="2. 根据group，计算插入的index，保证同一组紧密相连" style="text;html=1;strokeColor=none;fillColor=none;align=left;verticalAlign=middle;whiteSpace=wrap;rounded=0;" vertex="1" parent="1">
                    <mxGeometry x="775" y="130" width="220" height="30" as="geometry"/>
                </mxCell>
                <mxCell id="26" value="" style="rounded=1;whiteSpace=wrap;html=1;align=left;" vertex="1" parent="1">
                    <mxGeometry x="110" y="440" width="290" height="140" as="geometry"/>
                </mxCell>
                <mxCell id="27" value="" style="shape=image;verticalLabelPosition=bottom;labelBackgroundColor=#ffffff;verticalAlign=top;aspect=fixed;imageAspect=0;image=data:image/png,iVBORw0KGgoAAAANSUhEUgAAAWMAAABrCAIAAAAthHRvAAAgAElEQVR4Ae1d91cTWd9//5VkEphJL5QQQu9F6TX0KtKLbXVdy7rquu6iKPZdeXxY+64u9l4QaUqHQBBBEJRiXNx9luec9z3nPXcKCclMCAE0wJyTH8KQ+c73fu69n/u533u/c/8HRqDl8RE4e2esVRblKQuzw+L8RfzlUq7lUTt0KZY6Av+z1AtA+08jQCPwGRCgmWKZSKrP0FboR5iEgEScv9Un0ZFl0o+XjvKlmYJmisVEQBpzqXdwdEIzNfV8kzN7jp2HG3Gmd/RarMRId+K77ekYa9woQ4z85nP/i+2zIbH1d28v/mIC+7kLBVkEU4ito0ZZoVGw5SDLFuRWp935RsybzSWp8sbHyakp7PNWdffHNGfrWfuDOOHi+6HTUWJ941TXZzX4mX8wVz953tvb/7QgpqDyn+r6nOHlIkmHM+5uFQs+e3+es6sme0gzhX53RbHm2R9/nXI0gjMrjoApPtbk2XB51mKX8O9rxz4+zlVwSW1qL1K1SKrri1f95lmeq58rjilmbTZL8AdapkBgmx3slGFW0X9Zud1s3xh0hEdg+3+xcmusBGApAUbS2FljbA8vGIJh4Q+sgn52ZDUrrYuV1cP2jyMUARd2OMzO1AA72S/Z7oHEdRhGitj5vVbupezU16zsMVbGWWsrPuxTw8p+B35cNMHKHmZlNVjNzsSIc4pvRUNKhyazfTDxtyOOciu0xXPFGUciH7/NUGnSn93zj7PHugHifzCxtS5w77mom52prerIr1dx8XriitccjXo0mN6lyWx7rTyUygc9XORwtDm5fjBDpclsep1c+yr50UWFjHrOiTLFsxwR+iwr9x2N/xk8ES6CYJ7zzraxpq/lKNcgq8tVf1an2SIQP2DHs4H+kQmgQcZH+oeHexsO+gmor8MIxHVKPPSwUzM1OfWp/8WFkkAJyjjA/nh35aErNQ3db9+9e3ksXTFXba9lLlK+4CoSyh92ffjP5D9/jw63VBa7A61E6f+q/T1/Pv/GHasIiOezrXWy6Xs/XF6RMgViF7T9cu3bT5NTUyPdN3fFECCLAkoutgz9M6UZbTn/y4MBE2YfE92/nnjYNzo1NdH/pDRFgfqw9PEnrZQveJFgCpi7np2rYfspYTYHFm5kZ4+yFXK0k4tgvyZWails7WId844VuRbr+YApiv7LCggDrMHJYWePsB1swXfuRnbeONsjEIZ4sOwUq6DfykaM9UzAFIX/ZSWVWiNcBEJgQSCM98C5zT6c8sPqh2P3poolbJgrliatkYLOw+YnX0hueuQTaY9w+TZbnqfXn7EH8p4lWPs4Q9USoLRDEBY/7WZa41n0OoT47otvqvEOkSIIhNj7OEQptHNd29SIpnY/P2T2itFlCpH7lifvNQ9zFBxKpsAMUo3JJNd58g3V78fubQiQsHnOcSe7J16fChIhmP3JqY4fwiQQzHfd1jjaW+63oAvD3PCK3o91W/zFEMzlu0XGhjhomYjET77brtax9j1uPFDX1v4/tn58scmdmLuRMAVPvv7hyIea3UonmCP23HCj//3NdAcOBAt8DnR9GDiX6iKwso/5oeWfSc3scYrJqeFz+Z4IR+q3s/rd+O1MYIeCKZYO/rPw+Owtc6FlC84UXNirjbXmCIy3BiG8up+lzMDlAMvDOu4dK62PlX7CmpiEo5pCZSVEWwYksY4aY0UlAKZwfs5a+29rfGxxtk7+i7U6BCcXwBTjbJnUoAxzYQqRw/HXaRcLhHoKX+Dn93gkptAJQxDxK01sr3YF8WeufXlf6r+SMT95iTfTnh21FYJq4IT/mtJW46t04eiZQiBO4KHEl1WOUhNqC4tT/Gfs48fx/0xNTvWdK3JDIVqolirPqfn0+kwUFy0Xy3lTzaeB8hBcs0x07sV6JhJ8TKV5lGxjACzRnlgeVonjrIK/ZnzWnCWqifiZbnk5YT/3/t1zIi9YJuLoXgffSZgCYbt89UTTvS9AAMECv/Led9XrZNNzN0Om4Hp+3fqXqjwI52JhaPnr8evpthDPd1fXXy37cDEiyX40PjE7U2heHfLFWFKafHlMcy3NduGYYmHw1weQDHBL/w3OFELr4EFWkYaVNYh/cv5kxRXhTAHBsOwSUBBentorwh9Y+Y3WHGwcRm9PzAE6wruDlb6XEAtS61gNxiDo5KWInd9jJcI6rS5Yc2AKcWRw47vIZInu7TACIV7fxbfVuTvjDMWJOJvSdEUuhWCei+ftkZgcGfp7xGZvZ9rFTHzs5cnkW89FPxnObOuJLiuSoPSB/owlyHmadnf77OFMBIIBU/zZ8JWnwknmHhCx8XyHpqM0TLxgLRX0sU/Ne31wgpamVmnGLyeAcpHPbvRgmf6TA3OcYa7LzI/ddG2SUQxit3pLxY3mgdGpf9523NwVY6+dgpExBYQ4Zj0YV50I5QjDj/aPXV/roG36hkwhDD/+Zmryw9veN2/Qz9uhj+/vFClYwvDjg5+e5OP3cqN/7TNh9jH2crMDxkqC0MP9n56tU7CM40PqPykDLhT+0xWxdL9oNUU7K2UradOBkUx21nt28FVWboOVSIi1KqApCl9ZibFeZzvNCLCLgaYICsXMonGKbkKG6EImto58zwqLJn26XiOWpkS29QeFYWOsti1yQk+ntN0lVIDA/pA69ddMPgeCpYnhL7sCVnHA4zj2LlfexW/z0s4ygHE2N+CbmLbhsBg+4RLP/tjrlGOR00MicV37OO0V3dkHAvG8t7X/p+dEKALzFN+0jLXudEJjItyIM68/oXEK7EZxwoV3QxXRJGsfBtcdc57ra4ojodRxEK1jM3BjeVgloZEjEA8iPlnnjWkKbWGFHqln+jVdP3hMUzyF/6K0qjdvKuNSfn01cjXOVscBrufXbX/Wf+2mnb8YXsE85/ns7PzUuMMDY3xh2u33c9YUH/5IBZrCovDXgklRQUvgB9NxCt4mdu5btkcozIJhli1sV2BtYw+6Lph6jLEiMmFICAIWGSexCQgep4jMB3ENyW523hhbDn4P8zax88fY7gFEnOLNjDhFPilTCOBVr1nJ2wglYgxNvqf3vYnko5kiIQsWO9im5Msc0Fblujm2oy84SYZw+ZKsfyc21Xj7AGWL+JUmNN1S2KE1IQoPqhsIjUIZwSbQKS1UKGbDHK4o8XhC83NPD2JixbFzuTqWtD/IdKbA1j4Eds6JpTWf/nq62c0KRvgJVwbHbmfKORBiH3vmzeSUDlMIgsv6Jmu2eRFPJDoVyXWe46Zno6N31wdIWDynuJPdHwZOh4jwOAVJxJQKOi7MdYf5HjM+PJkxaoY9s3KS/CR8BOLKY072jTdtx1gPIEniJ1oEsbJiUKN6pemtjOXN8MRG+cfo2ztF8mmugXmKTU/eDl3bECq3hhFrW6+I/KJgey4EC7x+7HjfvM9HiEA817y7mplxClHAocbe3qpUewIxGOynAHGKPA8Qp9hR/W70RiqIU1gY/jPQmHZ+SX0hmAKEGG12sJOHwJhT+JGVetPKzh6GxLB/MyvjFB6eYHlYxY2zInMAI4C1j26rkCes/P+yCgbYASBIgZacB8uPsNd8BHaym9keQcR1bO2DlClgmFfMTh1j5WtYOS1WEly2UODI8V0ffL0PrE20vY47s9NGhD2Xb7PucnyzJlM1mnzzgleYFHWGxV/zMO3+dxJ0DwzitjWutcYNXSNA3IpDbr9OV2kyVe+Tb172ibXXERrWopzz8c0T6c1DKVd3YvdS1jQWp8D3U3x413HjSLYC01l87+Ir3W9H+140PPr3iWt92NoHboevKL7QOPppTDMx2FweoC0v2XWec1L5IxVY+/h7oPnSxiAsejLH2Qel/xQgwwgn6IcbqpGJqanJfyb7XlxYF6irgMj8BI8QBZ7on5waQFXPDMvWHuvPdoGNJ3/2VaBMB6LIITsu1Qz+CS5qBhtulEbaowERkV/R+SZ1f3dTe+O1K3XDM2Yf4tDK4cmpuhyHaeOAKcDaxwOw9jHe/2h/ohxXLkscf7w3zb3iFutGLVPMzSfAFPkNRJxibvdOVzP9ZZkhwFVsaRzrKfPBI0HLrHQruzg0UywWB6889mTZKo+8+rN2h8GsauVBsQwbFc0Uy7BSv0DPFHjvb52Y+tR9Z6cvCKPQn2WHgLlMseyAoBs3jQCNgBEEaKagB0AaARqB2REwlyl4gm33Cx/mcnWWDGZ/GBljsQN2Zw1UucgsUaRYhRzM7qmQ4bvRLdFD8zCn76IRmDMCOFP4+LqTdWNqczRTmEAcoqjo7vqwMO3uT2o8TbA2twr6EgZXWnktv0YW0ENaUxjpvfPVFCut56y08i5gP7R8U/PRFEUNh0OrnhWOqItaLq2Kd8DyAti+66IePMsfUpeMdOY8OuaJZ0mDIY7tkRFc9Tj/rbpkqHnN1e22aKqYzuxDIt1+ObflFzcPAei9Ak+3n2/nDauLu29FHvg1V2cWgORUFTbu99h9Jr2pNrenec3JcLBNkyOX77uQ1acuGenKfXTEww/bKcTlb75b+LiQh264RJ/1uwI8F73eUBZUeSWtob5AdTMkichTEHq7n74DnttzO6r8vO5zIVgo2Vu1tv6Uo91sIzbf2/fW81xVS8mIuqT3RW5nQ/b9nWC/I9ogSP2nwI3aT46DfP+FrL7ukmFVYeftyBxnFH++8NuHRc2no2/eyaitzm44FxCF7U9FKOwDl0j9gRAbm6+Op3Z0lYyo8+vP+EVgdij8MVpeI1xM/2vJIDAfTVEy0hCV5crmSMSbfyvorXSSgT12bP8iv9wQvpQH8RwdDj0pbtqL9xBpVHh7V+bRVKGIA3HtJBlZNlL091icQm5n9/21vMYjTk5YqjJf9O29otYjTi4ClnS1/0NVSZ82XoDkVBWPNCXvDkc4CIRIBb4yFszlFf5WoD7n6SsGzy17XNS83wYs1xljipKR+4FBYgjmCzbdKHyxG81h4Yv3PCxqLVc48Vl2oYFPe3SfC8FC2xONJSMmR1Uoxlgy/6lwA/6T+YlYhRzI7q/y8hFCMNfaJVi2GuvJgClKRh6i5eJyMk7ndp2SozmmlPWCMgUJnvkX8vuu+EfJ2RyRqPBfud1n0Pql9Ae0eIryzhk3yx9gV6CH89EUxS934RlikpgYdZsyUT9Nm+23c83AVWd0lz6cfLZAfdrBIOUcjPNDTyLP3C9Sn3F2JBLAuR6+z7syd3hiOgVOPVf4aiZTqE/JZrxeUeZyuzPnWDCeS6rISxl8Hrwa9CIjmqKodosQzeBir/p+7euLjlIE4nr61akyd+LPRTIu6j53zvRP0XMAU+j7P0Ok6OAG/CfxE0bYQT9mDz0OzQrgCtFN0HjbRTVF3ddYuSBxVLS6KTpGdyM2eJCOfVxT6PvDcfWuVmXt98d3RgsCg5tb4pJsMDxJ/THOFKZqsRXYA5dKkeejKQofFXCxNCp+YFBLVwqaLMxySgg4dyOrqymvpynvlapk5LqbnAPBXN6GW0WNOw2P4QBMMaIufHou7VVzfJELntosWB3S3pWchStnq/DDOeoZTFHYsH1G9jrX3aemK2O7B367RKnsa4mJlRhnCpJZidHnLiBT6PsPI1S4UTAdAmYH6w7EPXleONKT9/yMX4Qt6h5gisIHOfjbAASrQto6kzLAvyjsE7MPPTwFq0Pa1CV99dltteinPq//ZUKOAzWeKNNRMOOccVsqnWdF+blwmqJVmSCFELnrzfbcyiyhGJuJ7Mp6gzEFYkxTvLnu7sjjpJ7M7b/u64uuFKCaYrrnG2qKwvptM5gCdnC5Q64peBtvF1av56OMZhVyMOeNTpzCMH7B9fCt7Uzf7IoxjnViZYGOlplzixdFRavqw8P11z5AXEDPf0rcqDQR2jOxlipwVRyrKa7bir5VCDBF8QtC60njlX3NMbFiI/WCxyn0/OG4ej/rSFvvZFBko/5QlNfAiI7zK6qzLenCzkdTzIhTqP+lsOdAHFevp52Z3/oA1cqxdzhaQ2gKBLKJiejoyjySIhBxII6NODVTqhunkIFB0v7os6K6vbZg/wIWpzisUPAhcYDvvU7deAFJT4O5vKLfC9VnPUCcQg7iFK0/2aLbiq1jT+WpK50cOBBiKztWWzJilClgvui7ewVPvwbv8uQ6uf7epvtcENHcdz37xWnFrBFNrE3wA1Y3daZudMOVDtFQSPynxI2yZ7Ldk1yUnggfgTgyWVl14eN1KBticYpGLH4k+eaPgp7TIP5KaZ/QFHpMAfC8lN9R4bkavMCGZeNml5VpY8edRVNQlBeCudykneEntzvIiNklAQVNIksGgfloiqL6Q6F/gLWPwpaLgbEytMwcOHSLsr4+u+526oPfIktPrB3ANQUEI1Zea0KuPc0fVpcMtWT9scNg7QOBRKtX1XZmn1IiCLr28QtYgyjsuhFRWpnbfXp6BxRJTwNvpnV03H8x67W6ZESV++S4ZwD2ZloE4ru7Vz7K73mW/uBixMGKnAHjTIFAQk/3X25ltzzOqLmhrKzK15n1zD0yx+PnHEnv6Szsa8l7ultCvNOdzH8q3KiZImBrXN2LohF1yXBnDljrwbLvsThFWej15+ia1IXAWPtZ64XMHwRCbG03H09t7ygZURe/rku7uN3eDswiKWdDoPOTlxeC+eJ9T0tGbnu50EyxZPWUuZrisxbYWlmR11pqQ/S0JUPDX2DkROMU97PwOMUXcICsYSBy1ztdBVcyOSa9HIjMgoUUZCW7Ya6mWPzqlPo5Kr1gDgIJ3N1/e5lTEa3/hqiVXG2UZbdIprBJUHbdC/BdXmdqUVbB4neNL/Joy9UUssSImpeFbzoLB5oyLm6xs9VdC1ymlbEALcAimWIBykXX+JdGwHI1Bd28aARoBCwHAcvVFJaDEe0JjQCNgLmaYsFySXXDk/PNyFro6jT0x/CKrv/0dxqBZYuAuZpihTIFyyHcrUjJI042XfxmwePnHklpaioeUZeMtKyp+t7JlY4LfukZ+0IPSIvfihYCMVpTGKknC1AQXNg/yn61J09mizgFuv2rvujpJsHn46mFaGErs18tv1LPR1OQZp1TZH+DNgd2+Bhmi1NleZNnPVPboa4b0udSZmFT+WOXFPOiIbdXL7uUeicSeVY41vdMzl7XLRTHzv6nJyXqk/Zg7ym6w8owuxyxsT/yNO/WOiHIcOcgiUey1Zc83WkZQlPevBGYj6aYsZsbzzqnyv7Ge7hBdjNVljeXR571TGXHGBBzyfKm8ge3b6AyKJmCIiscszO37HW279ZUdSc6AelM2xeM7isBTEGaXQ4J/f0fNaXtDrB2WhOrqotKI967AUhnbs81orbof604BOajKciyzqmyv4kerpdtTZXlTZn1TGFHd+w1+D6HLG8qfwibpjMFRVY4zjhza2ccMSJ3EoSk+x8r9QqxQe9FNQVFdjnLNS9e1ZDR1JJ5IGzmdjWztAxR9rn5TN+1zBCYj6YgyTqnzP7Ge7h+tjVVljdl1jOFHVArXG7JTfCOqRF1ieowlh6GNW4w+9DLqqbKwqbyh6h105mCIivcLKYgns4O2LOmqwJ94xa6w4osuxwtso1DxYuSkVve7thrgeb1UJogaAQAAgunKdCsc8rsb6KH6+UsUmV5U2Y9U9gh+hJppZJkQFFleVP5Q9g3ZAqKrHadzjkjK1znOmGT1GfSi2z/XVnDTwL9+FicgiS7HNjkIinHslW/hVY+zb//lYhOlpk7zqTgr/SL89EUM+IUWNY5dfY3+XsQKLO8qbKeF4gpKLOwjWedIwZMgVBktSMUWeEYU5icvc5xlG/f4hrlw7OVIp6xftdaS7qPy8B7w7A4hUF2OYyw3PLje2ojk2WQwM//UUvmQd0JCJ39PS+mXtFkMR9NQZZ1Tp39ja196GkKmDrLmzzreYGYAqbK8qbyRyD5/kZOT1MeeKOvulDdlKe6HxqOJnqTZ7UjbPKscJwpTH0fJ8dBfuBSZmc7OqtqX3u33HM19gpCLE5hkF0uCgh40rqmLBwLT7DcChLU9dEZcqKJ09nfNFOYi4C5msLc59FScGEQQOMUc80up7O/Fwb8Fdn4zdUUKxIsC2pnZjEFnf1tQTW41HoQrSkIZb60as4spqD7CY2A2QjQmmJpMsXS4jXa26WPAK0paKagEaARmB0BczXFcsklFcUcvbpeZnhiuyh4++3uoQ/j6nvrHZbz2x95rl5338Xk2JstSslu5NqW9qT8EvMlM9nE0cGP+lOaxjNVz1wd8fONyFw16CE8xVePVHeKZBZa6Xy3PR1jjRtJWix16bhhx5q7ToXOOEkL4Ub+0vRe8+5N3ZFU0/AxV1MsJ6bYYMgFXOWlN5rHOY7L/pV8lscUHM+cwEsdaSpNpmok6XaVb4R4ug9wIs+nPP/ZTv/8FIPeTkh9xO2buNa5MYVtyrk33QeDsRedE3amHfjyX4wyhTjh4vuh01H6R8ZBHOfcR8O1u3xmbu1HIFgcdKJ/om6dneFIaVjSlaspuArl/mv1AxOTU5r+vvY7p9bY6wwjgrR774fOhKAnhlA2REM0l94VS2MKYVBg9VhC6RqJHYdj62iTuMk9XDqN6qIzBddhw/OR9j1uPAvkCMwls5gCRkTp1wf7Twfpt2eObEPjaPsuF1PU33w0heVlnc8hA0q69s7bwQup3vFHr6xT2HmHJweJdJhVmP7g/ZuKIKFOixG6MkbKGDfyGbVfM979xLgfwyTkHNNhFeOvvYxdSYz2vYyJA4yRfCZ6/CrTN4hRs5vxv+WMf75nnPRjYvVhxI5fMOP5bsbUYcb/lTE6spmKOSsaK2HOpcjj+1zCFDqsZ5TpAFOMxpcdi3gykqkaTbzwk4MDfrYrLE/wPdsGxvb2V7HlxVLtSGXjfOVdwr51PhX1iTWvUl60rg7jgYOgvIqDbg5kqMZTbp4NPPtaO/uwCfI4WpPcrslUDcVX7LS3mz4nicyO29fK9hYfb/3RD/HaHlX9KqVJk6nSpNa/Sq7tjtnhhyAQ4rMvofWZuzPuM+L+jbLthZcnfju5pqD0B0IUuc80XeVByDQ3wXyPH1QfXlddeNrysrOvt/v+93EO03MZm6K6MfWp9T/dbOx70z861n5WCXDgOiUeetipmZqc+tT/4kJJIHbuDLUdriKh/GHXh/9M/vP36HBLZbG7ftm1zoC9uW57Oia6fz3xsG90amqi/0lpigKUnR+w49lA/8jE5NTU5PhI//Bwb8NBP92N/A759zX9R0L1tBLHbl3DaPtuV1OYcT6aYsZubovIOjc9q5qn2NYy3rHbzTbm6JV1+rM+jiz6dP/Ey28UOlzLdAln/F8547Q3k4Mw7XwYE2WMdVImWovMyCzwrxvRTHsOBHOYHjLwG8dAxmgp46AXk89hhsQzpvYz4gQQjFDa4SsYr0oZpe5MHsLki5kp3kzwjok5fhB5mMuOyujq9+nPHgZvy7VTcGaxAJhCk1l71skVgcW+Hpfepp7J4IMTgOSul0ZSK9dLxGxErgx4MJa4L4hgHxvnKx8yXzz2CUNHe6mLRGYN83187o0lHUoV8q14ofuUXZo0LE7BlbucHUr77Tt7OQyLPFxP96VUpAH7oFxkdsShq55pUs7/5BoTIJQQnEWAQKIpeK6et97FbXJDWd5asrUp7dpGIXH+EAlTGPMHEkWfHv7z3lrsLCXsoaCHT06pfgwDZ9za5VQNDF9JsMX9sSmq+3Nq7GmpUsoFBym5BsitYZ58Q/X7sXsbAiRsnnPcye6J16fQkZzSDje8ovdj3RZ/MTh1yS0yNkTLRGS1D5hicmr4XL4nwpH67ax+N34704EYUahmHzACCYLL+j49W+80TdOYcV7cb2/GHxS4g5ap8yHrR/PRFEsl61wHAi0cVk45lX2fhjpbunuvfZcXKSMImBt5uu3T1OQ/HQejsfxu/BZmfD7jYzETPbcd4tozu8oYpXKUKTjMrdsY47lMogGhj+Mxj+1mNEXiOkLgxBgsY3xlw4QRSjsST8A+R3yZEqLiZ1Se1nNwGpuo8GFq+1i67qe1c3Uol7gFEQRleR28Ff9yOPHSMWcX6mEKMMV4wrc+mJ7iRl9Mbf5DLoVgWXZUW++qYMwgS5DzNL36kA0eILBxvjKRemJGwBLx2Bnf0eSND+YSxfn3qRhTuG5WdnT4+eGjNCfwUOLLKmAfFIfEDoxAiJPS89CtuLqxTNVY4sVDgMKIspMwBcIW5j1Ke/C9BGTN+fo9ehuVpY3OkjCFMX8gSfLVDxO/J+HuoU6iWqBrnzs26koSL42OXozHj6ezKar7OHYlFtWPRBuT59R8en0mCsfNeVPNp4HyEBGEaRMyO5ywn3v/7jmRFywTzV7vmKbQvDrki40i0uTLY5pradjh1QhkhCl4Pjs7PzXtNghV8NyL7oxOTk0NPtCN3JNp8/loCgvLOifa03TDmvUL39F/7cGH6oZ7beMT3RVxMqKqeM6pl4bfPy22185HuMw9Oxl1qzERAYlcGe/KGMUS9E8B8/qPjMse+L+wh/LlzN4yxk47/KLEk/GhlJEmhGAjdrjMtARG4x4w9XiRzQzgzzCoXxaxrUAhF8742PN0321l4+FQUBp6/XV67V0vH21n07eDxili8x2w60hgWWL7UxcHFuhj7S+9PHCK4cZeTXt5UYZPQMCsIX6blxYcBOKsPprU/tAJP5uea1emxpgCXFdp0mp7kmrQT+1AWsMtZwdsZCOxo+Mei+MU4Vn5JuPmN2Iid56MKSBYtibiZad/IIez+kjiiyoF7gPouoZMYdQfKk0x1rABbwnC8GNvPj3KwUUHmH10l3rpSnee9/b2T817iQ4pTa3SjF9OkGJMQW4HsVu9peJG88Do1D9vO27uigEHwRK8Y/gFjVO83IzH4AWhh/s/PVunwG8xwhSC4IN9n2o26GsKTtjPPZrarwO0U0vKRy+cprDcrHPKwsMIJEJnH5LI428mHxc5TrYw8AEAAA7sSURBVP9SmPlodODUKm2cQsi8f4Bx3QvrvczQNMY/25geKLMAUjjAKMFnIrgFsTtjvIyxFh+EmfHZjD83MOXgrVOUdoj2wbRxZr4sY9z1McIUVqKix+jqAJi3458OVVAYFxbY26ZtX/Xry9SOAWVFmXusB5eQ4oT96TKiXww1RdMVTFNE62uKwzqa4l38Vg9dpkA8dsS11Xu4YPMFofzMMKEptihbn7s5Tc/tdZ+OMsVMO3pOcqMvpzZddiDaMSfyXMrzXwzWPkTyn18nHVQ6lKlTTip1JowQ7GrwdMMrOr0RUeTWkMQpNL3EGG6bXvVh7HKCVlOMdf/oqcsUsGPOc31NgUYHgDahsoNjIvRIPdOv6frBY4ZBHfcAOIApZmqKD3+kajXFhXdDFdEEXLpgyvLuaQYM4hSITUHtaOf3uGLS/b3h9/loihlxCovIOjc5mxvm2sSuz4pwRiSxR6+sd/bacGt85Gy8VnZiax/B07FivoLRX854m8V05DIV3oz2A4xz3jhr2AcyJvcwgolxD4OYa89sP8S4EgCCFAEhjMFSxn4F+D2VHUTELFzFdBOA6YlnAKPvAGOPgxGmgGCJvdDVWaT7cXHkCaxE66qT7/wRUJIosdGf5BvWPbiCxyl+dXIh4hSnU9E4haPr5ZHUynUSMQuLUyTtD9aJU+gzBcz38rkzrNziw0FAXDC8eTpO4eh6YTD5l/U29tYwYs1zC3fKCOLh5EXGFKIg792b5YFOPKE1RxHueXYw4/pmEYEt4n8gsa3a3U1/MsUJ+yWpuSOxuWd1KIgpaj8SZWjjYHimXEtqXCP+QLDh2gcWXxg+n+eBcGwCdte+H61KwmagMIJqCj2m4DluejY6end9gITFc4o72f1h4DS6gkZpB/bMyknyk/ARiCuPOdk33rTdSUt2ooBDjb29VanEEzGmAHEK4I/Ub0f1u9EbqdNxChCMmKzZ5qWPD4wI064NDlRo2zMOEcceW/vQ5yaytxPMR1NYXtY5WSRG22502xBHGl96pal/6MPk5NTfo6Pd1/bHSYmeAMGIIPXOu7e/hhJMwXRYzZjcxThezPgbXcg4E8Qk5AYzPIMxuX5mkAI8iBkczXh1AEQ6x7YzvvdgosYp7fDtmVU7GVPl4PfvtzMO+DD1K0/XeSPf+YatRKfnGN4ImGI0/iC29vE+8fw+mQwf/xHHRL/z6L6GjtexRzforX3oaQqw9uFZGHRdlfigMa7qj5Arg7imQCDYNtjjaHVSqyZT9SGtpjZsWyQPn+WRMYXA0738fnzDKBBKXW/izx5QuMDaGuQpnMvrU9repTX1K3cFaOtLGOBfrcmsnlY900W2Fq2tjG8Bj078iWA6Sn/AXeh+igNB02sEoIdPqCpPPhkYA2sND39IkE/rIzKmQCCec1L5IxVY+/h7oPnSxiBs+KG0wwn64YZqZGJqavKfyb4XF9YF6ioCcWjl8ORUXY7DdMURax8PwNrHeP+j/YlafyCYryi+0Dj6aUwzMdhcHkA0UYjjlPNguPY7Yk6kxZMr2/RitHWns5absAeRvZ3AXE0x7foS/yKKO3Fto1zb5vDicMJOqScbv/LCZ/7MiDWMsfzpZdHphjjXLwtlZ67PXe6/5zq6Vb1L2IHHZbU9wYzGqbdHE/TwsfoSW60qMcMmmDUskB1zng72aKp+1tujCZoEYh93fvj9g7XavW0YdKRvJzBXU5jjsSW2V1HsMdLd3Dz37DPPO4dH0d3cHOaWbxjtxEKG+Q1xoewsF/DNR3IGAixuWHlia42HwaxkAewvVA9fKDszCj6fDsWN/OXlyPvelmvbQrWTbtwg6dsJVrqmMKkxCZhX9jN+m7m6YdKNevW6UHb0zK7kP/ne3rfGMtu7wteBEIk5lWL8roXq4Qtlx7i3i/nfla4pFr5tLWZt0d7SCHwpBGhNsQgDEU0WNALLDgEL1xSG78KmOzaNAI3AF0DAwjXFYp4tLpF89XOGWl0y0rn2+h5HR+M7lBDILnrVpRtZ4PeqhBkbfpfd6PGl9C39XEtGwMI1xeJxp3XUoZyhx8Hxjmypn+cfLYV3CvjGQ2K2we4bsx3jihIHu2imWLx6oS1bKAJmagppfHzfy5S7TwqG6uMP/JTYoSruqHR3BXvpKM8QpzrrXODp9vPtvGF1cfetyAO/5vZUyMToKG3kbPGGsqDKK2kN9QWqmyFJM07oleytWlt/Cj2Pz/hQL5FVNhfdzuKg6+Ts4J+yh257uc4mK2AEkiiVAzOZgvRMdmp8LLQdWPJoRvtmCQiYqSmk8fH9jRGxdvyNt0r6/q1wcHS51pS2yZUFI2z/Ir/cEL6UB/EcHQ49KW7aC3aqokUlO3OcL/r2XlHrEScXAUu62v+hqqSPYAr0FoM4BThbvGTkfmCQGIL5gk03Cl/sFhP253CWNzjNUJVdFsSN+Cpkf4ZAkZk81BxFumFer5L0mYLiTHZqfFAoTN9Lapzv6P/SCHwuBMzXFOo73m5c69iK3PqdIr7Q5sizrIOB0xtdMWpg++1cM3DVmdi1TnLmONfD93lX5g5PLBkOTj1X+Gp2piiq3SJE95+yV32/9vVFxxlpv6YBx/MJaOxes2eVdNedwo5TcrekhKHOuEQ888fYsK/HFFRnskvj443hQ5bVq0dJ9J80AhaFgPmaQn3L04VrFX0q5/k2EU8oLXuaVb6aTXWGOFpmkjPHF/Bs8TnBimuKVTi12ZurKajOZAdMQY6PMRqaUxHoH9MIfE4E5qEpyHoC1RniaJFIzhxHNUXGdo85aYrCx4U8NPrIDtidNfC7wgxNAaNxiltr8DhF0I9mximozmSnmeJzNmL6WZ8BgQXWFJRniINJAQlTwFic4rBCwYfEAb73Ok2JU1AzhelZ54h11OGcoYdBsTKWyNvj9+bCO4WzrH3AHBZfwJYlxg2oEtId2Hw+C0RDKc5kn4UpyLJ6P0Nl04+gETAbgQXWFEbOECdnCgQSeLr9cidvWF3YdSOitDK3+zS69kF1tjiIaBphClPPEAd4SaSbf87oBfspsm/sdVTMtvAhjol9DQ46Jz6tMbFoXIP0TPZZmIIsq9fsKqRvpBH4DAiYqSkWxzNrZUVea6kN8UrLZTulJ83qXRxIly2GNFyfGQEzNcUCein1c1R6wRwEEri7//YypyJ6ju9iMW2xYwEdnr8p0qze+ZulLdAILB4CX15TyBIjal4WvuksHGjKuLjFzpZ47e3ilZm2TCNAIzBXBL68ppirx/TvaQRoBD4/Al9eU3z+MtNPpBGgEZgrAl9EUxjs0cZjDYbXDa/QIToaARqBL4DAF9EUVP3f8PpiZp1ThULnlI3O52fti6uuLwCrp82Zv+9yVOCvnEfWXCXWU8HCasZWd6MnvlA5Q32dzoKf66hI/34+CFi4pvj83DnHbHShdMeBwIJoiasDxyth1eOu4kfrBWhOCrLmauGL76RSAZsPPizjKe1mVCGdBW8GaPQtZiNgrqbgC799WNR8OvrmnYza6uyGcwFR+ClvlFnnQm/302CHVXHP7ajy89rscqrrc806p8peB9CYnpFlbjY6WgFI1tXigUoH9Ax0wBSNO0XaPFdCHSxslrpexhp4NbuNzVfHUzu6SkbU+fVn/CLQeqGz4M3uIfSNGALmagrAFCUjD9Hsby4n43Ru1ym5DegMFFnnfPGeh0Wt5QonPssuNPBpD7Frm+o63q8M5iNUWefGs9dNzvI2OxsdoCmxP15X9HAdtiscWXO1eKQ1t7s1v+tx0ql1tvjqr3lZ6gTLGLZafaYwz77J+Bg6QF9ZIQjMS1PUfY1lf0PiqGh1U3SM7vFHKGtMZ51zPf3qVJk78exyJOMinl1OdZ1An5QpSLLOZ8teN3UWY3Y2OszlpBxZ23vNLwA/i5TtleySECTy8JDEr4tqUhfeRN+pZWaWuslMYaZ90zUXtSdElZkKNf37pYXAfDRF4YMcLBcTEqwKaetMygAnqbKcEgLO3cjqasrracp7pSoZue4m50BU2eVU1wkQSZmCJO9jNjumNl8zs9G5iPKHjJ67QTE6B20TRYBgxDrmRN7b6+4KFIc2dUlffXZbLfqpz+t/mZDjAM2SJ0LdP/U0BZ0FrwO7qZVO32IKAvPRFMUvduHvm5LGK/uaY2LFEFXWOdfDt7YzfTN4KRboOYmVBdgba6iuE66byhSzZa+b3GjMyEbnInE/pPfcCVaS0wQEI1YRR3Lf3vBQcKEFz1LXY4oFt09UhMkAUpMabWpJIzAfTVEy0hiV5crmSCTf/FHQcxq8vZIy65wv+u5ewdOvxQIE4jq5/t42HaeguI43OFOZYpbs9YXKRje0w+Uk/pShfhCSpLBC1zjYfPQoU8TWJjdbHuiKSKUc/9SgJ51FD7A1EfOy1Em7H50FTwoLfXFxEJiPpiiqKwu9/rxwRF3UciEw1h4ddjhw6BZlfX123e3UB79Flp5YO4DOPmAEEnq6/3Iru+VxRs0NZWVVvpp4Cx759blnnZNnr2OozSliZyQb3dCOvcvd6Tx07AtaXkTmePxW7gB6Zagx/dw3Mgciq92cLHWyuqez4Jf0EL3knJ+Ppii8j7/b2tKk6UrJXl+o1kZnwS8UksvYznw0hWUxxQrMXl+odklnwS8UksvYzvLRFHT2+jJupnTRvjgC5jIF2cz5ixeGdoBGgEZgkRDQYQqJOH+rT6LjAicyLZLftFkaARqBz4mADlMgbJ8Nia2/e3uh63yf0wn6WTQCNAIWjoAuU0AwF0k6nHF3K9j1YOF+0+7RCNAIfE4EZjIFTRA0AjQCNAJkCNBMQasnGgEagdkRMI0pxKGVw5NTdTkOZGTzOSUQ/SwaARqBL4KAaUwh8j9Y1919JZk4tXx2BvoihaEfSiNAI7BICJjGFLSUoBGgEVjZCNBMQesjGgEagdkRMI0peLL0gxW/liqnEyIXSeHQZmkEaAQsEwHTmELge+jV5FTLV+74K+pnZyDLLC3tFY0AjYB5CJjEFIhT3vNP7+8V2i/4q+jNc5q+i0aARuAzI2ASU9hm/DHcvjdAQEsJGgEagRWKgElM8ZnZi34cjQCNgKUhQDPFCh0iLK0h0v5YOAL/D9PpzUmRMc9gAAAAAElFTkSuQmCC;" vertex="1" parent="1">
                    <mxGeometry x="116.49" y="468.25" width="277.03" height="83.5" as="geometry"/>
                </mxCell>
                <mxCell id="28" value="" style="shape=flexArrow;endArrow=classic;html=1;" edge="1" parent="1">
                    <mxGeometry width="50" height="50" relative="1" as="geometry">
                        <mxPoint x="254.5" y="420" as="sourcePoint"/>
                        <mxPoint x="254.5" y="360" as="targetPoint"/>
                    </mxGeometry>
                </mxCell>
                <mxCell id="29" value="注册componentId" style="text;html=1;strokeColor=none;fillColor=none;align=center;verticalAlign=middle;whiteSpace=wrap;rounded=0;" vertex="1" parent="1">
                    <mxGeometry x="275" y="380" width="85" height="30" as="geometry"/>
                </mxCell>
                <mxCell id="30" value="" style="shape=flexArrow;endArrow=classic;html=1;" edge="1" parent="1">
                    <mxGeometry width="50" height="50" relative="1" as="geometry">
                        <mxPoint x="410" y="509.5" as="sourcePoint"/>
                        <mxPoint x="460" y="510" as="targetPoint"/>
                    </mxGeometry>
                </mxCell>
                <mxCell id="31" value="声明注册阶段" style="text;html=1;strokeColor=none;fillColor=none;align=center;verticalAlign=middle;whiteSpace=wrap;rounded=0;" vertex="1" parent="1">
                    <mxGeometry x="212.51" y="590" width="84.99" height="20" as="geometry"/>
                </mxCell>
                <mxCell id="33" value="" style="rounded=1;whiteSpace=wrap;html=1;align=left;" vertex="1" parent="1">
                    <mxGeometry x="466.92" y="465" width="220" height="90" as="geometry"/>
                </mxCell>
                <mxCell id="34" value="" style="shape=image;verticalLabelPosition=bottom;labelBackgroundColor=#ffffff;verticalAlign=top;aspect=fixed;imageAspect=0;image=data:image/png,iVBORw0KGgoAAAANSUhEUgAAASgAAABZCAIAAAACbC6eAAAbXUlEQVR4Ae1diVsUR/re/2UO+pieA2YGBhgukVsQBJH7PgaYk1FQlKAmS6KriagBFQ9AvGDVaDwjiUbFAxUROSee0Uz2t9krm92YTXb9Pd09PT1H9wzNDdbzzOMzFtNf1fdWvfXV9Vb/DoJ54AMQAAjMMgK/856fr6rrsdlqIT/6O0cT8oL4Xp+Spq8au7tihcSV1WzpXg2CHwAEFhMCEyRe9aViGEH50mDlpjPG591hgagro1xAYSMYW7rL4+C/AIHFjQAL8URwfH5085HcnSlCCI941RcLIQIIftjqktd3UpIlPAjF6r4wXjOKEHywKohv1Lw4FewH87ComIu3tKMDeIT85r52uK+yZ7Mvxp4OwTwkMHDrCc1Ti9k6or3avCRWRrCasN+3M6nzdHHfXcPoheR8lRe2L+6qAt4tJgRciMdXRAfVbc++NVBtuZK1uyYo2pfnRDyJZHW34dmJ0ECElXgkOmyRjSEdFRlPGizHImNkPFGQauc108NtcilM2jdbexKSZDwIE689b7zfKMPAjBQgsCgQoIknT4k99oXu+d2iox9G5kRCRBwjIgw5xxszPn9sfG0xW2+kV6mJOR5LxONMvIDQS8NVe5YLyQeDdYXf3lqeaIuoptvrJSgRUZdtqXjWFeS3KEBfTD038GVyCNDEU+Wn3XlsvH9ixcZSebDYYVBHDDV7dNLAQDQ0SmlqLn/asyxJOm0RD42I7h0p3bjEtmDjm5X1dCAj09eL/cl5C54CCMwTBGji4QUSo8llcQdPVbwYrrzSuqw6Q+KHOg81YR7Ok7GKHQkCCBXVXjLeWIMRsVGY3FT1kpjjkY5J01eN3k1NZVrVdE1XhV5mjXgMc8h5AhwoBkBgKgg4E48ayInVCu2mlZd7K9rTbYsr5KomJscyNxW+HC0w46NNn8z9OkunWoXwYEXAnttmqwPxsPjE/uGi2nDXjQeGdFRkOmW0HF2Cz/EC8Tneo48V1BwPEM9h6EHVzlTqGzw7TxBgJh5VOD5mi3j2fTzTaE/29kKMXOTAIiI6r+rHb5Z82ZXW1FZFrmranhVhVc0l48PGpwO6642+YnujYUpHg4K2dWmeWczWUe3XeyPjfYnW5nEOSZUQtEuAwIJEwDPxFqRLgJMAgfmPACAe6FwAAnOAACDeHIA+//tjUMKZRgAQDxAPIDAHCADizQHoM92bAvvzHwGaeNExEXNTXN+A9uu68YFqq6XIFOROA2FyU+V4W4DMvi7K+oU4L3o2NID1B+7G8RRpfPQfr+meDlSerkTp8zruRpxWWZlNzQ2A7kX1njJxVGfMUy/1Pr35TsVfYcr20rFBw+DZ5bnTd1qYJt6sNBrh0rLln1/T4yKjwYrL24NUlMoB35cfYiQeX5UabsoSEQfHPFfG5IgnTN+rfdYdqkI8G3c5SePtx96b/oQtTEqW5a02p9IQeZLIsE9PEts/FsPjL7K3rIRgyl+Gs7jUnxiLxF7vbvggiOGcfVsL/zK43Y/epvKYCwRPyV+85FJ5U6/pSgVi95TRnYkn0sSbhYgXVJIxNlq2T+MbIBUGRPobzYHB3onnVgGsEE+OeD55xwxDTQoJq1mqAHMV8Ygje1xlWd5awBQaokS+u9d0rykkRikQK0SJ+UtrU2F7c5xB4sE8GBNgUnHtxerhXf4KsQDfZPZaa7YfTMFf0gKCGs4Ze2vFnsZEEy0MXmyaeBP2gfaWm5wHkzZeMw9+QpxKcSsiY8+nzM+436f9Ztz81HWoKVhSuvzsNf1ri/nVw/LPNiqIw9MOxPP12/hH7cDB8CWOh07dMiVc9sk/bhj8RO7cdzLZJ4jXuyX24EWd1WK20DIlQczq9C9v6l9ZzNbhqqt7IhMcDgAwyprEkeEHLum+s1SPXVy544jWPpCG5fJ1e4uGRsxWi/5uR2yakoCaIB6DLItNToW7CVedNd7btqSxo6T/tnb8YXlrKn4GXRIVcegynu/4pfRPj3vLl8UOEh51c6S8MdrtTBKbHCwm4d5QUW2o7fdoRPSN4dJNkfR/3Uc6zDiQ1Yei5gvVQ01yuqMk6oURZ07+wnL/5uu6i6sl+OEQBM5rrrR0R0ZgVGtHEP3nxt614gmMvKhHmNub7a808ThHPI5yHjgwvGfc2J3lw8hwRuIRv2Toq/zSUx+PlLUUSaQID1X6lmrkfvhA0Ua8QKVyy+e6e81qtcg7BIjS/9Ne09Vq8sSp7ffM9vEKNlt708rDhSKl/8fXqh/YZEqCOFOsNhnzE+Gypl1fV/d/hOsPCb0ik6wJk75/xfSoWR0q5vslxn01SnUrqEh/Qv/0dFx6oACRSo3t2rEOdQDifFbWSZbFIqeyEaba2l/QmAojMA/2E8cE8CFM9uFXpkefBqsxvjIl4bq9O2PLl82OTNFy2zzWlWjM9A31daUfQ8QTiesvG3vrSJUJP7qh7Pn5yFAqWDHUu6fy8CBm4jHizNlfSVzc1f7ixngfdXnm6J30YqcZnTB9n/ab4+Fhdip65BVjI3dMpInnmDqh7xzlPDjEFu3+FJv8xyULhgqwOeZOPKjgqMFySOUmEcKJ9+rrlR09JktHSJCtavlhpnzLiOlbx89QResKIQQLUz4ue2kxf3clMZWMUbYcWezjxDP1NUhF+M8EiX9glCkJYjeXv/gsxN9GPAZZE7ok5tZIGdXlQ0XHjE+IeI6ERd0Y1WyLE5DIiBOWPxzIzpeTxDNb3WVZbPjjxYOrzlZb9gf42jzCOxQ0MvbOaNlmW6iBS7u85ctiB4J5mFr13u7c3nsmq8U08Mfl5WG2MuMrVUxXfqj1Bc+uxcdgPAiTbbtuuFBBL2K51zsrDqQvzMRjwnky/vLDdDmjfaX9A2U7VrhGCDQ04mS/2WrRnamiy+/SjCf+X5p4XCMeDhkXOQ8Z8bqmHvFQUc1F073NUjdRLE48q8V4/Vjxk4c5Jmpsg8iQYLVI7fRBFVS/hQYFt/cZLmgcJs1s9okhjbviHoL56tz4Y+c1I/268X7dk1Gz9Vy4B6GwODH58UiBhhxGwsLU3VUWgnjixORBi/np3crB28Tnru75g9wqlS3iucuyWPG3EcbYt5HsI2xhnHO+LHYc25ZE7V9/TPfqUvQSanDBSDxYFXJmAFe0iBOTB/qzS2y+E92B26IaKw6eiMdwmH5S/vIguartvtl6MSqC8ojyV5C0veLZmagYN8EN9QMbzhP8L028CT5A/4yrnAeTbblufrTdYXROQkn8i4RF3RwqXqN2Lz23iPfyXESQCClq1T4/F0NgxA+rLsAvlXD8jFYeIOY8hC9QYZfx0TbH9TEPEY+hguHAsAuPtZ0aiYwY7sZ9oHnpkXhExLPrD50iHjMCTnM8B1kWG/4UYe7agrMNUnRJzO3hkrowcnDok9dpsEda5nxZ7NANgKg4WUbGk4GMLGrIwCIHg/IOaQd3qnJ2V40ecBqquNe7e4pTjswRj6FeJuMvChfuqRw9mdJ5Xd+zTuo87YcrzhgpWbZ7K+WcQhOPa8SDOMt5+MGaLMtoWUuZTCkRKCOUOhO9qgn5qo7260+Wu28buBOPJ89IGxopay4USxEeIpcVlfk5zvECYB4s92+5abrzkUIG8xBfNDQMC3f6iJT0ogu5qunUHTDbZ4l4SNjS68Nl70fjwy3EX9XS6yXiQeQcb3dwMMaTxcdcGabneKZu/VBbZKI/H4L58nClpkyupPSQDLIsNvzZCINJf3/FcH2DTAzzUHXYqUFv+bLZkcrf/ygqPwFTSvhStbL+hP7VBTo+MMi+CH5KU1MfD2r6Byv34YN8h2bqXu+oiBkHtlVNlnqBOPvLD9fnjN9eWRDAE8fGXR0oa3IcbeKbGfiq5vQvrjjB4QgN+3fuch5hTGXy+esGPP48rnTcx4Ngfnjlyjv4PYLV/TuIxX2x75bzVeP9OiJeGS39utGelFQpWWfCpeXJn1/Xf2cxvxrQnNnktqoJ86SJy24PV+7Pole6WRz0ye00DO1y2U5gss9WwQiUsj7r7t3KO5eKvjy58pN9FS88RjwI5okjww/iq4vGkfNpn3Rqxw7ZjgfACkXd3qLHQzgIz+4Ud230V9oWV+wR20mWxYw/Xl/4qqZLxMNXNSMjDl6sHLhW2ns+q/OsnhziQjCPOV82O2JpTXN+3wMTXonjujvHE0sd5ngQk+wLR17it6PXbCUv9XBqUW71zlYetn08tnrh6K80Pv7rR+U7U8mpHT/ckGu5u6o0kOojUNR03i77phKdHOGWOIWIN4VcWTjArejTZESQtK3yxbml9MLxrPrlk9Wme+S6mTEnOMxwpqho9XnjvfcX6nVVsEJ1sM9wpoC8a28asKKJN03teBrKNMslEYWG7vlMM9Lv7cjY9BHSLzYoayl+nZQ4IuLkg6q2Va4LaLOMwCxk55e6vH+oqM7tRoJZyHrKWeBHxkYfVF5vi06kprJTtumwgc55jjd9DXHqbiwsCwF5ab0PjC+HjS/6S7vWKxVeT6staKgx6QeXTdaRipM1MvxGD/AhEAARDzQFgMAcIEATD0Q80BkDBGYNAZp4nLMUiRt6jF9pUfsBWc4WnEcdrvKc6bZPFI9hc2KKxeb8+KTkMLDv2h0Nb0/U/bUlJ8O2v4RElBjffBKnmi78CUfQyOzvO4pynLewZjcgYNnrzX/rqPutu+FRli99JoYzzs6ti+XxqfmLhOdpvu9Y/7a79mgUveE+IRkRTTzOEc8jMRhPMLA4T9armzzHo32Ppjw0lCkRb27kMEQDwom3YaxY4bAMM/+IhylN5opvjzS87W7490HDV1WhvvZOQRx6tr3GsXV6qCP8T4iicfeGCRIvIFP7thvP1PY5kLmcONbnJQuiCU2NeETViMMuHXZ3zZuMiCYe56bskRjciecmz/Fon3Npbf3fFIg3d3IYfKtt/hNPlFK95j97snUhEkQkUUdENuSFyGeFeDwYhUWiiDz9fw/lZMhQGOWwWDVjxPMmI6KJN6mIZ+rbnXL2phE/LNu9LEeFH0die1uQN6q4yXNw4jHYZ327EE6tRSuHYSHeLy057R+u/rm74ZdWTfMyme1QCCIrrCp/gUee+h925K0LpQ6mQrAiverNnsw6TfHIvpofOtY9qw3B8CrzX1un/3tXw28d+jPmsr/Yh5qwOCU/f/BQ/dvuhn+2lGyNlti1CAx2EPn7u+qfafxdd7pQ/w+3rvmhrQ4PR4fX/nCo1vpxWoII5qEBu/ZseJTnR5VZ8ftdG8ZLlbbHGSMee3l4EBKUrfvtUPYK+gQvElZgeNOSs6++cqil9qd23aEkmW3gyslfWJy12vyPrYlLiDMr8sTc7zo0GxxfU8cc8bzJiGjieSOGW+DGiWG29qVrwgSIr6zupOGbTkLGQsQWrhGPQZ7DZp9NjmQj3uKUw7AQ72137WdpchjG4gsqfjpcUokrNpDgzIp/Hy5bH4IJUFm+qfo/rZkpVHNUpFf9r3vd/YoQOS4XEkeESH0gNLbC9OuB3HJ/VChT79z53tsj5BwPCc4o/2dn5bYYGQyLojKLf2gv1lCKECY7WNrqNW/by1sywxMDMOdzYTCPYaiJRBQZ3uxOXkJISyH1iidHde/hMiii/TAQz1N52Ij3ttu4cwnGg9CIfO3Pe9PjcfJw9xdTbduxbqgiUOIfc7mt5rNkisBkUZmJB3uREdHEm1TEq37wge0sgm9GhmUwK8/PBpwb8bjLc3DiMdl/J+UwLMT7be/KOPL0oCTs3OH1PYliHiQ1/GHDn9cEo0Sz4CviHh5fs586a69Ir/rv4YIcWkUK8xDl1ub6b8psocYvpfxNJ0E8RL5pV/23OhVMNi9R4P7Wuq+SbGdcGezgyiO//OLcG7trf+1u+LVVsz9VbnsWPyXHMMcT+MffO1LdFILyIDRea/5payy9UOROPI/lYSPeL5/aiA2Hr3p1pLxEMkl/fVTx19pqx/bVPTGoJSQg9n9ZiMfzLCOiiWc3NNEvODGMVw02bRKWkDQwUqintINuxONxluew2H835TAsxHuzIz6InEeJAltb6/szZHy8ydZbSqhlGEn4lSN15+Jso018iNiSGuN40lcU1Haw/l6aTe2CRuX8HznUFAW1HWh421n7/YEa4lP796Nrb6TLyNEmgx2HZsPH/DKKyv5xQv/7ICqCMRGPB0t1jXWvDIGIKOhQ67ovUxwUN+7E81geNuK9aUoIJvCBw9K/PVpRLoV5k/KXB4nz6ta+7dZtwgVfREy2/8tCPC8yIpp40xDxHmXlOkQ857cCcZfnuEc80v47KYdhIZ5zxKv7Yhke8YxuEe+AQ8R707IiypF4iOKjTzeMFMjJwaEkseRfVMTbvGvD41w/xgV9gnjOduwNkfwiDrvYWXcxnppeEsQ77rDmTjZfWWLRXw/k5C/L+VNbYb7juRZE7pq7e4pTjixzPHfiTcZfRLE8z9pe0V5v/vHj5TEuS6YsxPMiI6KJ5+SGM6eZ/4QTw2mOZ2kP9qf6A3d5CGd5Dpv9d08Ow76q+ba79rR9jtdRXI5LzpHgrIqfO0rrQjA+Mcf7dX9WqsMcz5V4EBqjMf5rZ0qsCJdQVX+w3j7HU2dpfjxYtD5C6gPBkFS+Ki16BaE55JGLNC4EhkQpZas2JQWG+oogse+q4vIfjzvEB5Fq774NA3ly16UXccjxg+u/3bf++xo1vsxDf7C8hnU/vh8TTF8uhLCWh3lVk1hccSced399VPFfd9ScTJIKRAHbdtQ9NTqPNpmJ501GRBNvUhHPdHdXyhl8VdM40JWQGeAAHJs8xBFcp+9u8hyceMz23y05DIESS8TDVzUb8VXNN63lu+KltuiE+Bbryon9tPq/NOVvcLgmhDlSYcqadbrvWqvHdmt76qt+pFc1JakF+QMHN7ztbvjfkZqhTamZ1O2mTHbQ6Ny8Oy1rf8H30977R3PZ3hSHOR6EhKTnjXRseHOk7m870xPpoCFKMqx5273GHpPtTQhSxZ5qXo9nvY/qOGDm8rDs47ERD+Zx8hcL/Lip7pkphJzaQaqEG4drz6Y4rK8wE8+bjIgmHt3ZOPHBDsRMf5lbec6MeTdNchhYVv3R2p87aq27sldS4WvGyjybDQBR52jf7EmLdRz9znVTnDCwSFhO2YuDtf/sNO23X35BFt6rjIgmHueIN93VM/vynFmo4IUsh5lw+5t8S+BLQw7u2zBYIHc4kTN5a7NQ4IlkMSEZEU28WWiF71YWQA7jmUJoTLnhP931r99PiltUMdyz19RfAfEm0oeB3wAEphkBQLxpBvTdiupU/w285ooAIB4gHkBgDhAAxJsD0Ln2juD3iw8BQDxAPIDAHCBgJx4/VJdxrjVBn4o5nqBdfD0N8AggMB8QsBOPJwpS6jevvHzL+PJ2QdvGsFQ14yG9Oegb5gNMoAwAgelFgCYeZVcQvDxk067cvgFD/8mUSttV+4BvAAGAwHQi4E48HiKX5hgTj17UvuzL20i8EoDi5HRmDGwCBN5lBByIJ0aXl8S0HCv9ZlR3oyOpJkviR7098F0GCPgOEJgJBOzE40fUFA1dydq5OjBGbr9aA4Q4gABAYEYQsBOPB2N8WvsETiQABAACM4kATbyZiKfAJkAAIMCIACDejAwkGLEGiQABOwKAeIB4AIE5QAAQbw5At3d74Ms7iwAgHiAeQGAOEADEmwPQ39luHjhuR4AmHuc7V3xVXY/N+Bvo8Y/+ztGEvCDvG4DuF92SRWFLtxcUfAEILCYEaOJx9gonXvWlYhhB+dJg5aYzxufdYY4vc2A0yEYwtnRGIyARILDQEaCJN6mIV32xkLyilB+2uuT1nZRkCQ9CsbovjNeMImI7XhDfqHlxKtiP/S1CHt4uhAQGbj2heWoxW0e0V5uXxMqIYSFhv29nUufp4r67htELyfnUvfELvTJA+d8dBGjicfaZiHg24kkkq7sNz06E4jfLsxCPtM8W2RjS2d4KhNs3W3sSkmQ8CBOvPW+832h7cQpnF2byaAIoDEDAAwI08SYV8czWMePzx8bXFrP1RnqVmpjjTRfx2N4KhNs33V4vIa5AFSzbUvGsK4h6fRRYKQEILAwEaOJ5YCfzn4iI16OTBgaioVFKU3P5055lSdJpi3isbwXySGzmooLIBhCYZwjQxJtUxLPP8Xg4T8YqdiQIIFRUe8l4Yw1GzPGEyU1VL4k5HkkJafoq57cI2fonhnS2twIB4s2zNgQ6u0kgQBOP88MOq5qYHMvcVPhytMCMjzZ9MvfrLJ1qFcKDFQF7bputDsRzf4sQmS9DOttbgQDxAPEWPgI08SYV8ez7eKbRnuzthRh5FzcWEdF5VT9+s+TLrrSmtipyVdNGbLa3CDGlM78VCBBv4Tc7zr38onOZJh7AAiAAEJg1BGjicY54i64TmjXQQUYAAZp4AAuAAEBg1hAAxFsY2z6z1iBARrODACAeIB5AYA4QAMSbA9Bnp08FucxnBLgSD8reWzXSqpLDPAjfx7NvJwBZECAwQIADAtyIh4Qt/fJR6Qfk9dIOG+hAFjSfO1dQtnmIAAvxRHB8fnTzkdydKUKHQgtTd1RajoSoEILZBPEYZEEQtpmvfyhESVlQorD8R0GwYsZlQfwIn1VfC+LX+IikEIeOx8E78BRAYPYQcCEeXxEdVLc9+9ZAteVK1u6aoGhfuihIUPi5Ac0nyygqOhLPURbEQjyyiTPIf4j9QIZ0jrIgEaRYI0y7zdf/xM/rFoaugsDbjui6A/3LfEOAJp48JfbYF7rnd4uOfhiZEwm53SotSGgsf3IqQm1/oQI5x3OXBU0X8SYnC4IEIT4hWwXZ43zdM8FyI+T9Nor5ViWgPO8CAjTxVPlpdx4b759YsbFUHix27Sxhf3VXf2Vrqg8NChHxGGRB00S8ScuCUEhSJFx2ll/1Ez9nC4h74IDRvESAJh7OKDGaXBZ38FTFi+HKK63LqjPsLwziR9WXPr0QFSFyIKTjUBN2kAVBovf4+kEhRghVhWnCip+IOR7JWAb5DzXUdJULcZUFQWiqT3S7oOQv/KpBQWK9j0QOJnvzss3Rffc7XDxn4lFAiNUK7aaVl3sr2tOJGZ1c1d6nPZJDXq9CcY8gHnnZkYssKFdQ9YNAHQjxYCigg2/6xYF4DPIfIlOGdG6yIH6ksOA1P/OAMDAeDC+pegRNfN4iwEw8qrh8DJ/R8cPNhU+/io/BKMqR9UrO8WzX+znLgqDw03ztn/nF9wSprYIKclXTZpNJ/oP/iSmdkywIhsDbjpwrCNBvHiPgmXhERcoUzbf0p0sReB67QfUUoOUBBBYGAt6Jh6qD36sPXeq23ALaOkAAIDBpBLwTb9KmwYMAAYAAGwKAeAtjZMJWfyB9gSLw/6o+ob4eewzVAAAAAElFTkSuQmCC;" vertex="1" parent="1">
                    <mxGeometry x="476.89" y="480.5" width="196.22" height="59" as="geometry"/>
                </mxCell>
                <mxCell id="35" value="渲染阶段" style="text;html=1;strokeColor=none;fillColor=none;align=center;verticalAlign=middle;whiteSpace=wrap;rounded=0;" vertex="1" parent="1">
                    <mxGeometry x="534.4300000000001" y="590" width="84.99" height="20" as="geometry"/>
                </mxCell>
                <mxCell id="38" value="use styleSheet实体" style="text;html=1;strokeColor=none;fillColor=none;align=center;verticalAlign=middle;whiteSpace=wrap;rounded=0;" vertex="1" parent="1">
                    <mxGeometry x="463" y="390" width="107" height="30" as="geometry"/>
                </mxCell>
                <mxCell id="40" value="&lt;h1&gt;注册&lt;/h1&gt;&lt;p&gt;注册阶段，解析tag template后，使用插值进行重组，根据注册顺序产生componentId，实例化样式信息类（ComponentStyle），将实例挂载到高阶组件，返回高阶组件&lt;/p&gt;" style="text;html=1;strokeColor=none;fillColor=none;spacing=5;spacingTop=-20;whiteSpace=wrap;overflow=hidden;rounded=0;align=left;" vertex="1" parent="1">
                    <mxGeometry x="120" y="630" width="280" height="130" as="geometry"/>
                </mxCell>
                <mxCell id="41" value="&lt;h1&gt;渲染&lt;/h1&gt;&lt;p&gt;处理一下从高阶组件传下来的props，构建一下样式上下文，计算样式，以及根据样式产生hash作为类名，使用styleSheet插入样式。获取类名后，重组一些props，使用createElement生成元素，返回。&lt;/p&gt;" style="text;html=1;strokeColor=none;fillColor=none;spacing=5;spacingTop=-20;whiteSpace=wrap;overflow=hidden;rounded=0;align=left;" vertex="1" parent="1">
                    <mxGeometry x="463.09" y="630" width="280" height="130" as="geometry"/>
                </mxCell>
                <mxCell id="43" value="" style="shape=flexArrow;endArrow=classic;startArrow=classic;html=1;" edge="1" parent="1">
                    <mxGeometry width="50" height="50" relative="1" as="geometry">
                        <mxPoint x="713" y="214.5" as="sourcePoint"/>
                        <mxPoint x="760" y="214.5" as="targetPoint"/>
                    </mxGeometry>
                </mxCell>
            </root>
        </mxGraphModel>
    </diagram>
</mxfile>